<?xml version="1.0" standalone="no"?>
<!DOCTYPE svg PUBLIC "-//W3C//DTD SVG 20010904//EN"
 "http://www.w3.org/TR/2001/REC-SVG-20010904/DTD/svg10.dtd">
<svg version="1.0" xmlns="http://www.w3.org/2000/svg"
 width="240.000000pt" height="240.000000pt" viewBox="0 0 240.000000 240.000000"
 preserveAspectRatio="xMidYMid meet">
<metadata>
Created by potrace 1.11, written by Peter Selinger 2001-2013
</metadata>
<g transform="translate(0.000000,240.000000) scale(0.100000,-0.100000)"
fill="#000000" stroke="none">
<path d="M937 2328 c-103 -106 -125 -161 -143 -357 -7 -86 -16 -169 -19 -184
-2 -16 0 -38 7 -50 6 -12 13 -35 15 -51 2 -16 7 -34 12 -40 4 -6 16 -34 25
-62 16 -50 36 -76 66 -87 10 -4 9 -6 -6 -6 -12 -1 -21 -8 -21 -16 0 -9 6 -14
14 -11 21 8 27 -41 14 -109 -12 -60 -8 -99 16 -162 5 -12 3 -14 -7 -8 -10 6
-12 4 -6 -11 5 -10 13 -31 18 -46 12 -33 32 -38 24 -5 -3 12 12 -14 34 -58 22
-43 40 -86 40 -95 0 -8 12 -26 25 -39 14 -13 24 -26 21 -28 -6 -7 -49 17 -64
36 -12 14 -13 14 -7 -4 17 -48 17 -55 1 -55 -9 0 -19 -12 -22 -26 -6 -23 8
-180 22 -251 2 -12 -1 -25 -6 -28 -6 -4 -8 -11 -5 -16 4 -5 -5 -24 -18 -41
-40 -54 -53 -100 -37 -138 18 -43 65 -94 79 -86 6 4 11 2 11 -4 0 -6 8 -13 18
-17 9 -3 38 -23 64 -44 52 -44 62 -47 53 -20 -9 31 15 41 60 25 22 -7 41 -10
43 -5 1 4 14 6 28 3 27 -5 74 15 74 31 0 5 -7 15 -16 22 -15 10 -15 13 0 27
23 23 20 48 -5 48 -12 0 -17 4 -14 11 4 6 -2 13 -14 16 -13 3 -21 13 -21 27 0
17 -2 19 -11 6 -9 -13 -10 -13 -7 0 5 15 82 60 104 60 7 0 17 8 23 17 7 14 12
15 24 5 11 -10 16 -10 19 -1 3 8 9 7 20 -4 9 -9 24 -14 37 -10 27 7 27 -8 1
-25 -24 -15 -18 -32 11 -32 11 0 22 -7 25 -15 4 -8 11 -15 17 -15 7 0 7 4 -1
12 -17 17 -15 28 6 28 10 0 23 5 30 12 9 9 12 8 12 -7 0 -17 1 -17 20 0 11 10
17 22 14 26 -3 5 -1 9 4 9 9 0 42 59 42 75 0 3 -15 5 -32 3 -29 -3 -33 -6 -31
-30 1 -16 -3 -28 -9 -28 -5 0 -23 -9 -39 -21 -16 -11 -29 -16 -29 -10 0 6 5
11 10 11 17 0 11 26 -10 45 -16 14 -23 15 -34 6 -11 -10 -19 -9 -36 1 -14 9
-23 10 -28 2 -18 -27 -92 -26 -92 2 0 8 -6 11 -15 8 -8 -4 -15 -1 -15 6 0 8
10 11 29 7 24 -5 30 -2 35 16 11 41 8 50 -18 43 -14 -3 -28 -2 -31 4 -3 5 -1
10 5 10 6 0 16 5 23 10 7 6 35 27 62 48 28 20 52 40 53 45 2 4 9 7 16 7 10 0
33 33 41 60 1 3 7 18 14 34 16 40 10 61 -18 60 -23 -1 -24 5 -5 51 6 15 2 13
-18 -8 -14 -15 -29 -27 -34 -27 -4 0 -17 -9 -29 -20 -31 -29 -130 -42 -189
-25 -21 6 -27 5 -22 -4 4 -6 1 -11 -8 -11 -9 0 -15 4 -13 9 2 8 -48 61 -59 61
-2 0 -4 -7 -4 -15 0 -12 -3 -13 -19 -3 -11 7 -18 15 -16 18 2 4 -5 14 -16 23
-27 23 -24 42 3 23 29 -21 54 -20 62 0 5 13 15 15 49 11 28 -4 48 -1 61 9 18
13 17 14 -21 14 -23 0 -45 5 -48 11 -4 6 -13 8 -20 5 -8 -3 -19 2 -25 10 -10
11 -9 14 6 14 11 0 31 -6 45 -14 18 -9 32 -10 44 -4 14 9 15 12 4 19 -9 6 -2
7 19 3 19 -4 32 -2 32 4 0 5 8 12 18 16 37 12 73 44 158 138 14 16 31 25 39
22 9 -4 15 0 15 7 0 11 2 11 10 -1 5 -8 5 -17 1 -20 -13 -8 -23 -60 -11 -60
28 0 63 121 39 136 -4 2 -6 11 -3 18 3 9 -3 17 -15 21 -12 3 -19 11 -16 16 6
8 -8 13 -27 10 -5 0 -8 3 -8 8 0 10 -26 22 -57 26 -38 5 -26 -12 35 -52 41
-28 58 -45 59 -63 1 -14 0 -19 -3 -12 -3 7 -15 17 -26 23 -12 6 -18 7 -14 1 3
-5 -6 -13 -21 -17 -20 -5 -24 -8 -13 -15 22 -14 -23 -27 -135 -39 -100 -11
-149 -8 -171 10 -6 5 -18 7 -27 3 -8 -3 -18 0 -22 6 -4 7 5 11 27 10 49 -1
158 21 152 31 -3 5 4 9 15 9 12 0 21 5 21 11 0 6 6 9 14 6 9 -4 24 9 40 34 23
33 25 43 15 61 -16 31 -39 52 -46 44 -4 -3 1 -12 11 -19 12 -9 17 -23 14 -42
-3 -28 -5 -30 -41 -27 -21 2 -45 -2 -53 -9 -13 -10 -17 -10 -25 2 -8 12 -10
12 -19 -1 -9 -13 -14 -10 -35 15 -16 20 -25 25 -25 15 0 -9 6 -22 13 -29 10
-10 9 -11 -5 -6 -10 4 -24 21 -33 37 -16 33 -14 41 32 86 20 20 22 29 18 91
-4 51 -2 71 8 80 21 17 43 4 58 -32 8 -18 29 -49 47 -69 l34 -38 117 0 c78 0
111 3 101 10 -13 8 -13 10 1 10 9 0 23 8 32 18 17 19 67 160 67 190 0 14 2 14
9 3 8 -12 12 -12 25 -2 23 19 20 3 -3 -17 -18 -16 -18 -22 -7 -87 13 -76 28
-62 19 19 -4 36 -1 50 16 72 11 15 21 35 21 46 0 11 5 16 10 13 6 -3 10 1 10
10 0 13 -4 14 -20 5 -11 -6 -20 -17 -20 -25 0 -16 -16 -20 -24 -6 -3 5 6 21
20 36 20 22 24 35 20 59 -3 17 -8 65 -11 106 -14 185 -39 260 -117 350 -33 39
-73 77 -89 85 -22 12 -78 15 -275 15 l-247 0 -70 -72z m430 -110 c27 -7 54
-18 60 -25 7 -6 22 -9 33 -6 11 3 36 -4 55 -16 40 -23 49 -26 40 -11 -3 6 1 7
9 4 9 -3 18 -22 22 -42 3 -21 8 -46 12 -57 11 -37 13 -50 13 -81 0 -19 9 -43
23 -59 24 -28 43 -106 31 -125 -3 -5 -17 -10 -31 -10 -15 0 -24 -6 -24 -15 0
-13 -5 -12 -28 5 -32 24 -33 24 -156 17 -67 -3 -93 -9 -101 -21 -7 -9 -17 -16
-24 -16 -6 0 -11 -4 -11 -10 0 -5 5 -10 12 -10 8 0 8 -3 3 -9 -17 -16 -146
-19 -144 -3 4 25 -3 42 -18 42 -9 0 -24 7 -34 15 -9 9 -35 17 -57 18 -22 0
-38 5 -35 10 3 5 -4 6 -17 2 -15 -5 -20 -4 -16 4 4 6 2 11 -3 11 -6 0 -11 -5
-11 -12 0 -6 -3 -9 -6 -5 -3 3 -28 -10 -55 -29 -27 -19 -49 -29 -49 -23 0 6
-6 9 -14 6 -30 -12 -36 105 -7 141 11 12 23 22 28 22 4 0 8 26 8 58 0 61 26
146 54 175 12 13 34 18 79 18 34 1 59 5 56 10 -3 5 5 9 18 10 13 0 32 3 43 5
24 6 26 6 88 0 33 -3 51 0 60 9 15 18 34 18 94 3z m241 -528 c4 -13 3 -13 -11
-2 -13 11 -16 11 -19 0 -2 -10 -8 -9 -21 5 -18 18 -17 18 14 15 18 -2 35 -10
37 -18z m-724 -16 c3 -8 2 -12 -4 -9 -6 4 -10 -9 -10 -32 0 -57 10 -84 29 -81
9 2 22 -3 29 -12 11 -13 11 -13 6 1 -3 10 -1 20 5 24 6 3 11 2 11 -3 0 -9 103
1 133 13 10 4 17 3 17 -3 0 -6 -8 -16 -17 -21 -20 -12 -9 -14 24 -5 13 4 20
11 16 18 -3 6 0 6 8 -1 48 -46 -187 -69 -242 -24 -11 9 -24 34 -29 55 -14 61
6 127 24 80z m452 -54 c14 0 23 -3 20 -8 -7 -11 17 -37 39 -40 47 -9 134 -9
129 -1 -3 5 2 9 11 9 8 0 18 -7 22 -15 5 -14 8 -14 26 2 15 14 19 15 15 3 -8
-28 -60 -45 -138 -45 -109 0 -127 7 -150 61 -11 25 -20 58 -19 72 1 26 1 25
10 -5 8 -26 15 -33 35 -33z m-246 30 c0 -5 -5 -10 -11 -10 -5 0 -7 5 -4 10 3
6 8 10 11 10 2 0 4 -4 4 -10z m334 -6 c5 -12 2 -15 -10 -10 -8 3 -18 6 -20 6
-3 0 -2 5 1 10 9 15 22 12 29 -6z m-354 -24 c0 -5 -2 -10 -4 -10 -3 0 -8 5
-11 10 -3 6 -1 10 4 10 6 0 11 -4 11 -10z m474 -5 c6 -17 -42 -29 -59 -15 -10
8 -14 7 -17 -2 -3 -7 -7 -4 -10 7 -4 18 0 21 38 21 26 1 45 -3 48 -11z m63
-17 c-3 -8 -6 -5 -6 6 -1 11 2 17 5 13 3 -3 4 -12 1 -19z m-503 -133 c-4 -8
-12 -15 -20 -15 -8 0 -14 -5 -14 -11 0 -16 -24 -37 -46 -39 -35 -4 -45 0 -54
23 -5 12 -9 16 -9 9 -1 -7 -5 -10 -11 -7 -6 4 -5 13 2 25 7 10 15 17 18 15 3
-2 21 0 40 5 61 14 100 12 94 -5z m-134 -76 c0 -6 -4 -7 -10 -4 -5 3 -10 11
-10 16 0 6 5 7 10 4 6 -3 10 -11 10 -16z m160 -10 c0 -14 -17 -10 -23 5 -4 10
-1 13 9 9 7 -3 14 -9 14 -14z m-20 -25 c0 -8 -4 -14 -10 -14 -5 0 -10 9 -10
21 0 11 5 17 10 14 6 -3 10 -13 10 -21z m-167 -139 c9 -25 14 -45 12 -45 -8 0
-35 59 -35 75 0 26 8 17 23 -30z m439 -43 c-7 -2 -12 -10 -12 -18 0 -9 5 -12
10 -9 6 3 10 2 10 -4 0 -13 -25 -19 -87 -19 -44 0 -53 3 -53 18 0 18 25 34 40
25 5 -3 11 -1 15 5 11 18 25 10 25 -15 0 -19 5 -25 22 -25 20 0 20 1 5 18 -19
21 -5 44 21 34 11 -4 12 -7 4 -10z m-152 -28 c0 -15 -21 -18 -57 -8 -40 11
-27 30 17 26 26 -3 40 -9 40 -18z m39 -48 c82 -3 77 -16 -11 -31 -23 -3 -38
-2 -38 4 0 5 -9 13 -20 16 -11 4 -18 10 -15 15 3 5 12 7 19 4 8 -3 37 -6 65
-8z m19 -476 c7 0 10 -5 7 -11 -4 -6 3 -13 14 -16 30 -8 21 -25 -18 -36 -37
-9 -55 -1 -28 14 23 14 21 27 -5 31 -12 2 -24 9 -26 17 -4 10 1 12 19 8 13 -4
30 -7 37 -7z"/>
<path d="M960 2014 c0 -7 -10 -11 -23 -10 -20 2 -22 -1 -19 -34 2 -21 -1 -41
-7 -44 -6 -4 -11 -12 -11 -17 0 -6 5 -7 11 -3 9 5 10 -4 4 -32 -4 -21 -12 -42
-18 -46 -6 -4 -8 -11 -3 -15 5 -4 11 -2 13 5 3 7 18 19 35 28 25 13 29 20 26
45 -3 16 0 29 5 29 5 0 7 7 3 15 -4 12 0 14 20 9 17 -4 29 -2 35 7 4 7 11 10
15 6 4 -3 1 -14 -7 -23 -13 -16 -12 -17 11 -11 14 4 28 7 33 7 11 0 8 30 -3
30 -5 0 -10 9 -10 19 0 11 -4 23 -10 26 -5 3 -10 1 -10 -6 0 -7 -8 -5 -21 7
-24 21 -69 26 -69 8z m67 -26 c-2 -7 -10 -12 -17 -10 -7 1 -18 -2 -26 -9 -13
-11 -34 -5 -34 11 0 8 20 13 68 19 8 0 12 -5 9 -11z"/>
<path d="M1782 1729 c-1 -46 16 -85 30 -71 9 9 9 15 0 24 -7 7 -12 27 -12 45
0 42 -17 44 -18 2z"/>
<path d="M752 1738 c-7 -7 -12 -28 -12 -47 0 -44 16 -30 25 22 8 40 6 44 -13
25z"/>
<path d="M1760 1680 c0 -5 5 -10 11 -10 5 0 7 5 4 10 -3 6 -8 10 -11 10 -2 0
-4 -4 -4 -10z"/>
<path d="M768 1674 c-5 -4 -8 -16 -8 -28 0 -14 3 -17 11 -9 6 6 9 19 7 28 -1
9 -6 13 -10 9z"/>
<path d="M1740 1638 c0 -7 10 -32 22 -55 21 -40 21 -43 5 -61 -9 -10 -17 -22
-17 -27 0 -5 9 1 21 14 27 28 33 110 10 128 -21 16 -41 16 -41 1z"/>
<path d="M732 1581 c-14 -62 -15 -133 -1 -108 14 24 28 21 21 -5 -5 -23 -5
-23 16 -4 23 20 31 9 10 -12 -6 -6 -13 -25 -15 -42 -3 -36 15 -47 47 -30 21
11 22 16 15 79 -5 36 -7 81 -7 99 1 17 -2 32 -6 32 -16 0 -29 -45 -21 -72 4
-16 4 -28 -1 -28 -20 0 -21 59 -1 99 l21 40 -33 -1 c-32 -1 -35 -4 -45 -47z"/>
<path d="M1305 1450 c10 -11 20 -20 22 -20 2 0 -2 9 -9 20 -7 11 -17 20 -22
20 -5 0 -1 -9 9 -20z"/>
<path d="M1700 1424 c8 -8 23 -20 34 -26 16 -8 15 -4 -6 16 -30 28 -48 35 -28
10z"/>
<path d="M1944 548 c-82 -104 -273 -289 -371 -358 -51 -36 -134 -89 -184 -118
l-90 -52 -65 36 c-133 74 -290 217 -397 359 -75 100 -94 142 -77 169 11 17 10
18 -7 11 -10 -4 -34 -11 -53 -14 -19 -3 -55 -18 -80 -33 -25 -14 -79 -36 -120
-48 -91 -27 -184 -68 -242 -108 -24 -16 -70 -43 -103 -61 -137 -75 -155 -104
-155 -248 l0 -83 1200 0 1200 0 -1 213 0 212 -162 80 c-88 44 -168 80 -177 81
-9 1 -25 6 -37 13 -12 6 -24 11 -26 11 -2 0 -26 -28 -53 -62z"/>
<path d="M1696 562 c-2 -4 -1 -14 3 -21 6 -9 10 -7 14 8 5 20 -7 29 -17 13z"/>
</g>
</svg>
