<?xml version="1.0" standalone="no"?>
<!DOCTYPE svg PUBLIC "-//W3C//DTD SVG 20010904//EN"
 "http://www.w3.org/TR/2001/REC-SVG-20010904/DTD/svg10.dtd">
<svg version="1.0" xmlns="http://www.w3.org/2000/svg"
 width="933.000000pt" height="933.000000pt" viewBox="0 0 933.000000 933.000000"
 preserveAspectRatio="xMidYMid meet">
<metadata>
Created by potrace 1.14, written by Peter Selinger 2001-2017
</metadata>
<g transform="translate(0.000000,933.000000) scale(0.100000,-0.100000)"
fill="#000000" stroke="none">
<path d="M0 4665 l0 -4665 537 0 536 0 31 23 c17 12 67 38 111 56 44 19 121
55 170 79 50 25 119 56 155 69 36 14 86 37 111 53 25 15 100 49 165 74 65 26
142 58 169 71 90 43 203 85 229 85 13 0 27 4 31 9 3 5 105 59 228 120 589 294
722 373 886 527 47 44 107 90 133 103 51 24 184 54 315 70 46 6 95 17 111 25
49 25 198 163 212 195 15 37 11 122 -20 476 -11 127 -23 343 -27 480 -5 215
-4 252 9 262 12 11 20 7 42 -18 44 -49 76 -100 76 -120 0 -11 4 -18 8 -17 5 2
22 -12 37 -31 28 -32 32 -55 23 -113 -2 -9 2 -17 7 -17 6 0 9 7 9 15 -1 8 2
14 7 14 5 0 9 -3 9 -7 5 -79 10 -108 19 -111 6 -2 11 -12 11 -21 0 -21 31 -51
57 -55 10 -2 20 -11 22 -22 2 -10 10 -24 19 -30 9 -7 13 -19 9 -33 -4 -17 0
-24 19 -31 13 -5 24 -14 24 -19 0 -19 79 -91 100 -91 15 0 25 -9 33 -30 9 -23
16 -28 33 -24 12 3 33 0 46 -7 12 -7 27 -12 32 -11 15 5 41 -42 41 -73 0 -27
4 -31 35 -35 24 -4 36 -11 40 -26 3 -12 19 -33 37 -48 25 -21 36 -24 55 -17
17 6 30 4 50 -11 15 -10 49 -22 75 -25 26 -3 58 -12 71 -21 18 -12 28 -12 48
-3 49 22 70 13 65 -27 -4 -26 21 -42 68 -42 42 0 100 -15 127 -32 6 -4 9 -19
6 -33 -5 -31 -4 -31 39 0 20 15 44 25 59 23 33 -4 104 -72 96 -93 -4 -10 3
-19 19 -27 25 -11 30 -21 39 -72 3 -17 12 -34 21 -38 8 -5 15 -13 15 -17 0 -5
8 -26 17 -47 12 -28 17 -70 18 -144 1 -86 5 -110 20 -127 10 -12 25 -19 34
-16 9 3 12 1 6 -4 -23 -19 -34 -50 -22 -62 8 -8 6 -11 -8 -11 -16 -1 -15 -4 8
-16 15 -8 27 -21 27 -28 0 -8 5 -16 10 -18 6 -2 1 -9 -10 -15 -16 -11 -18 -10
-14 1 3 8 1 16 -4 20 -5 3 -8 -5 -7 -17 1 -12 -2 -30 -7 -40 -8 -15 -4 -15 29
4 22 12 32 15 25 7 -6 -8 -9 -17 -7 -20 12 -11 14 -51 4 -69 -6 -12 -6 -19 0
-19 5 0 2 -15 -7 -32 -22 -44 -24 -78 -4 -70 9 3 13 1 9 -5 -4 -6 0 -13 8 -17
9 -3 12 -12 8 -22 -4 -12 -3 -15 5 -10 12 7 17 -8 12 -29 -2 -5 -2 -18 -2 -28
0 -9 -3 -15 -9 -12 -5 4 -9 -1 -9 -9 0 -20 38 -59 49 -51 11 6 8 -21 -2 -31
-12 -12 -8 -24 9 -24 12 0 15 -6 11 -21 -6 -21 29 -67 47 -61 5 2 4 -4 -3 -12
-11 -13 -11 -17 1 -21 7 -3 15 -17 16 -31 1 -14 -2 -23 -6 -20 -12 7 -9 -37 3
-47 6 -5 0 -5 -12 -2 -13 4 -23 2 -23 -4 0 -9 -57 -33 -90 -38 -8 -1 -26 -4
-40 -8 -14 -3 -51 -8 -83 -10 -31 -2 -65 -9 -75 -15 -12 -8 7 -9 73 -5 312 20
476 51 671 129 338 135 574 308 801 586 72 89 236 360 218 360 -3 0 -1 9 5 20
12 22 1 27 -18 8 -8 -8 -14 -5 -22 16 -5 15 -8 32 -5 37 3 5 1 18 -6 30 -7 13
-7 19 0 15 9 -6 27 16 30 37 1 4 3 7 6 7 3 0 9 0 15 0 5 0 6 -7 3 -17 -5 -12
-3 -14 7 -8 10 6 12 3 8 -12 -3 -12 -2 -27 3 -34 10 -17 22 27 17 67 -3 28
-34 51 -92 69 -15 4 -16 8 -5 21 11 14 28 15 104 9 133 -9 215 -36 276 -91 38
-33 56 -43 71 -38 36 11 52 11 83 1 37 -13 170 -95 245 -151 113 -86 266 -167
391 -209 41 -14 97 -34 124 -45 28 -11 74 -30 104 -42 82 -32 111 -49 153 -89
47 -43 72 -57 124 -70 22 -5 86 -23 143 -40 57 -17 110 -31 117 -31 12 0 14
670 14 4335 l0 4335 -4665 0 -4665 0 0 -4665z m5960 4534 c15 -28 5 -23 -15 7
-9 15 -12 23 -6 20 6 -4 16 -16 21 -27z m-985 -77 c-3 -3 -11 0 -18 7 -9 10
-8 11 6 5 10 -3 15 -9 12 -12z m126 -19 c13 -15 12 -15 -8 -4 -24 12 -29 21
-14 21 5 0 15 -7 22 -17z m446 -85 c-3 -7 -5 -2 -5 12 0 14 2 19 5 13 2 -7 2
-19 0 -25z m-380 -40 c-3 -7 -5 -2 -5 12 0 14 2 19 5 13 2 -7 2 -19 0 -25z
m-105 -103 c9 -20 9 -20 -6 -1 -9 11 -16 27 -15 35 0 14 1 14 6 1 3 -8 10 -24
15 -35z m105 23 c-3 -8 -6 -5 -6 6 -1 11 2 17 5 13 3 -3 4 -12 1 -19z m-316
-85 c13 -16 12 -17 -3 -4 -10 7 -18 15 -18 17 0 8 8 3 21 -13z m316 -45 c-3
-7 -5 -2 -5 12 0 14 2 19 5 13 2 -7 2 -19 0 -25z m30 -200 c-3 -8 -6 -5 -6 6
-1 11 2 17 5 13 3 -3 4 -12 1 -19z m40 -130 c0 -7 4 -22 7 -33 5 -13 2 -11 -7
5 -9 14 -13 28 -11 32 7 11 11 10 11 -4z m-147 -430 c14 -9 23 -10 28 -3 13
18 86 0 79 -19 -3 -8 8 -10 33 -8 44 4 120 -37 120 -66 0 -12 2 -14 8 -4 11
16 40 11 72 -11 18 -13 26 -14 32 -4 5 8 8 7 8 -5 0 -16 2 -16 34 2 31 17 35
17 41 2 5 -13 8 -14 14 -3 5 7 13 11 19 7 6 -3 37 -9 69 -12 32 -3 81 -11 108
-19 28 -8 59 -16 70 -18 11 -2 33 -9 48 -15 16 -7 35 -12 43 -12 8 0 14 -4 14
-10 0 -5 3 -9 8 -8 18 5 119 -15 139 -27 16 -11 23 -12 26 -2 3 8 14 2 30 -15
13 -15 27 -25 30 -21 8 8 67 -17 67 -28 0 -5 8 -9 18 -9 10 0 34 -13 52 -30
18 -16 40 -30 48 -30 7 0 28 -14 45 -32 21 -20 42 -31 60 -31 19 0 34 -8 44
-23 8 -13 21 -20 29 -17 8 3 14 0 14 -6 0 -6 6 -8 13 -5 7 2 21 -3 29 -13 16
-17 18 -21 18 -40 1 -18 30 -44 40 -38 9 6 9 10 -1 16 -11 7 -11 9 2 9 17 0
42 -25 52 -53 4 -9 10 -17 14 -16 36 6 44 -2 38 -33 -4 -20 -3 -28 2 -21 6 9
12 0 20 -27 6 -23 6 -40 1 -40 -5 0 -6 -5 -3 -10 4 -6 12 -7 18 -3 7 4 6 -1
-2 -11 -12 -14 -12 -19 -1 -29 10 -10 12 -9 7 5 -4 11 -2 15 6 12 15 -6 19
-54 3 -54 -6 0 -4 -6 5 -13 19 -14 21 -47 3 -40 -13 5 -13 -58 0 -88 4 -10 3
-20 -3 -23 -6 -4 -8 -13 -4 -21 3 -9 -1 -22 -8 -31 -11 -13 -10 -17 4 -25 24
-14 21 -36 -5 -50 -14 -8 -18 -14 -10 -17 6 -2 10 -7 7 -12 -3 -4 2 -13 10
-20 8 -7 15 -18 15 -25 0 -14 -49 -39 -70 -36 -12 2 -12 0 1 -11 22 -17 31
-49 19 -68 -9 -13 -11 -13 -20 0 -8 12 -12 13 -19 2 -6 -11 -10 -10 -15 4 -3
9 -9 15 -12 12 -7 -7 13 -57 30 -74 19 -19 32 -18 16 1 -18 21 -9 34 18 24 13
-5 22 -17 22 -29 0 -14 -4 -19 -12 -14 -7 5 -8 3 -3 -6 4 -7 2 -16 -5 -20 -7
-4 -9 -13 -6 -19 4 -6 11 -9 15 -6 5 2 16 -4 25 -14 14 -15 15 -19 3 -24 -9
-3 -14 1 -13 10 0 9 -7 17 -16 18 -10 2 -18 -3 -18 -11 0 -8 -7 -14 -15 -14
-22 0 -18 -18 8 -31 20 -11 21 -11 8 4 -15 19 -8 22 20 7 10 -6 19 -16 19 -23
0 -7 9 -23 20 -37 15 -20 21 -23 31 -12 17 16 29 15 29 -3 0 -8 7 -15 15 -15
8 0 15 -2 15 -4 0 -2 3 -13 7 -23 6 -16 5 -16 -10 -4 -11 9 -17 10 -17 2 0
-10 14 -15 33 -12 15 2 31 -49 19 -61 -12 -12 7 -38 27 -38 10 0 15 -23 14
-58 -1 -7 5 -11 13 -8 8 3 14 1 14 -4 0 -13 -23 -13 -57 2 -15 6 -46 17 -68
23 -22 7 -49 15 -60 19 -11 4 -6 -1 10 -10 18 -10 25 -19 17 -22 -7 -2 -19 1
-26 7 -7 6 -28 10 -47 10 -61 -2 -71 0 -65 16 4 10 -1 15 -14 15 -11 0 -20 5
-20 10 0 6 -10 10 -22 11 -22 0 -22 1 -3 9 17 7 14 9 -15 11 -19 1 -48 2 -63
1 -24 -1 -27 1 -16 14 10 12 9 13 -5 8 -9 -3 -16 -10 -16 -15 0 -5 -8 -9 -17
-9 -15 0 -16 2 -3 10 12 8 10 10 -10 10 -24 1 -24 1 5 14 19 8 25 15 17 20 -7
4 -12 2 -12 -3 0 -6 -8 -11 -17 -11 -15 0 -16 2 -3 10 12 8 13 10 1 10 -8 0
-24 8 -35 18 -20 16 -20 16 -7 0 17 -23 3 -23 -21 -1 -17 15 -20 15 -28 3 -6
-8 -10 -11 -10 -7 0 5 -6 5 -12 0 -20 -12 -88 -11 -88 2 0 6 10 11 22 12 11 1
25 8 29 15 9 15 11 13 -25 22 -27 7 -28 6 -15 -10 12 -15 12 -16 -8 -10 -18 6
-20 3 -16 -12 7 -27 -15 -38 -35 -18 -11 10 -12 16 -4 16 7 0 12 8 12 18 0 9
-4 13 -8 7 -10 -14 -32 -17 -32 -4 0 5 -5 7 -11 4 -6 -4 -8 -13 -5 -21 4 -11
2 -12 -14 -4 -26 14 -50 13 -30 -1 12 -9 12 -10 -3 -5 -10 3 -24 6 -30 6 -7 1
3 9 22 18 43 21 47 34 16 49 -22 10 -25 9 -25 -9 0 -10 5 -16 10 -13 6 3 10 1
10 -6 0 -6 -8 -9 -20 -6 -11 3 -18 1 -14 -4 3 -5 -2 -9 -10 -9 -9 0 -16 -6
-17 -12 0 -10 -2 -10 -6 0 -3 9 -12 7 -32 -7 -19 -14 -31 -17 -38 -10 -8 8
-13 7 -17 0 -4 -6 -1 -11 7 -11 24 0 15 -26 -14 -43 -19 -10 -28 -12 -26 -4 3
15 -35 17 -45 2 -5 -6 -11 -5 -18 5 -5 8 -10 11 -10 5 0 -15 16 -36 26 -34 26
5 35 -4 11 -11 -31 -10 -60 -3 -51 11 3 5 0 9 -5 9 -14 0 -14 -17 -1 -25 6 -3
10 -11 10 -16 0 -6 -6 -7 -12 -2 -17 10 -108 11 -108 1 0 -4 5 -8 12 -8 6 0 8
-3 4 -7 -4 -5 -14 1 -22 12 -15 19 -15 19 -9 -6 5 -20 3 -26 -12 -26 -10 0
-21 5 -25 11 -5 8 -8 7 -8 -2 0 -7 12 -17 27 -23 22 -8 25 -12 13 -20 -13 -9
-13 -11 -1 -16 10 -4 5 -9 -15 -17 -24 -10 -26 -13 -11 -19 11 -4 16 -3 12 3
-3 6 -1 10 4 10 13 0 14 -10 3 -28 -5 -7 -16 -10 -25 -6 -13 5 -17 1 -17 -16
0 -13 -4 -19 -11 -14 -6 3 -8 16 -5 28 5 19 4 20 -8 4 -17 -23 -26 -23 -21 1
2 11 -3 25 -11 32 -8 6 -14 19 -14 28 0 14 -2 14 -10 1 -5 -9 -5 -19 2 -27 7
-9 7 -13 -2 -13 -10 0 -10 -4 1 -16 8 -10 9 -18 2 -22 -5 -4 -12 -14 -15 -22
-3 -11 -8 -9 -18 10 -7 14 -21 31 -31 38 -19 13 -15 46 5 35 6 -3 8 -2 3 2
-12 14 -48 14 -37 0 5 -6 5 -16 0 -25 -12 -18 -13 -30 -2 -29 18 3 32 -2 32
-11 0 -5 -7 -7 -15 -3 -10 3 -15 0 -13 -8 2 -8 -4 -13 -12 -11 -11 2 -10 -2 4
-12 10 -8 15 -20 11 -26 -5 -9 0 -8 16 1 22 11 23 11 11 -4 -8 -9 -11 -21 -7
-27 3 -5 0 -10 -7 -10 -9 0 -9 -3 2 -10 13 -8 12 -10 -2 -10 -10 0 -18 -5 -18
-11 0 -6 8 -9 18 -7 10 3 24 -2 32 -10 12 -13 11 -15 -7 -10 -16 4 -19 2 -16
-12 3 -11 11 -16 22 -13 14 3 20 -3 24 -26 5 -24 12 -31 29 -31 l23 -1 -23
-12 -23 -13 24 -22 c13 -12 27 -19 30 -15 4 3 7 1 7 -5 0 -7 -9 -21 -21 -33
-11 -11 -15 -19 -7 -18 32 4 39 -1 33 -22 -5 -15 -4 -19 4 -14 8 4 10 -2 7
-19 -3 -15 0 -26 6 -26 6 0 8 -3 5 -7 -4 -3 -2 -12 4 -20 9 -9 8 -17 0 -27
-10 -12 -8 -21 6 -42 14 -22 14 -26 3 -20 -12 7 -13 6 -2 -5 6 -7 12 -21 12
-31 0 -10 4 -18 9 -18 4 0 14 -34 21 -75 7 -42 17 -78 21 -81 5 -3 9 -12 9
-20 0 -8 -4 -12 -10 -9 -16 10 -12 -11 5 -25 11 -9 13 -16 5 -24 -13 -13 -13
-29 0 -21 6 4 10 -6 10 -22 0 -22 2 -25 11 -13 7 12 9 8 7 -15 -2 -17 -8 -29
-15 -28 -7 2 -10 -4 -7 -12 8 -20 -10 -19 -30 1 -9 8 -16 11 -16 5 0 -16 46
-57 58 -53 7 2 10 13 6 28 -3 13 -2 24 4 24 5 0 9 -8 8 -17 0 -11 5 -17 13
-15 12 3 12 0 2 -12 -7 -8 -9 -21 -5 -28 6 -10 5 -10 -7 -2 -8 6 -22 11 -31
11 -19 0 -24 -22 -8 -32 6 -3 10 -16 10 -27 0 -12 3 -19 6 -15 3 3 12 0 19 -6
15 -14 -1 -40 -19 -31 -6 4 4 -8 23 -26 25 -23 31 -34 22 -40 -9 -5 -10 -10
-3 -14 6 -3 17 2 24 11 7 10 20 17 28 17 8 -1 22 -2 30 -3 13 -1 13 -2 0 -11
-20 -13 -4 -13 21 0 16 9 21 7 29 -12 6 -16 9 -18 9 -6 1 9 -4 20 -10 23 -6 4
-8 14 -4 23 7 20 -41 63 -62 55 -10 -4 -14 0 -13 13 1 10 2 26 1 34 -1 12 -3
13 -10 1 -6 -10 -13 -5 -25 19 -8 18 -14 36 -11 39 2 4 0 24 -5 44 -4 21 -4
35 1 31 5 -3 9 -12 9 -21 0 -10 6 -13 16 -9 8 3 12 2 9 -4 -3 -6 -2 -10 3 -10
5 0 14 -12 21 -27 9 -20 15 -23 21 -14 5 8 1 20 -11 32 -10 10 -16 25 -13 34
5 12 8 12 20 0 8 -7 14 -18 14 -23 0 -6 5 -12 11 -14 5 -2 12 -19 15 -38 7
-40 14 -52 14 -24 1 12 6 7 16 -16 14 -33 16 -34 27 -15 6 11 13 32 15 47 2
23 0 27 -14 21 -12 -4 -15 -3 -10 5 4 7 3 12 -3 12 -5 0 -14 -8 -20 -17 -7
-14 -9 -10 -7 17 2 19 4 44 5 55 1 17 5 15 24 -12 22 -33 37 -42 37 -23 0 6
12 10 26 10 14 0 23 -4 20 -9 -4 -5 0 -12 6 -14 9 -4 5 -12 -12 -27 -17 -15
-19 -20 -7 -16 9 3 17 1 17 -4 0 -6 12 -10 28 -9 15 0 22 3 15 5 -7 3 -10 11
-7 18 3 7 -2 19 -11 26 -21 17 -19 30 5 30 15 0 20 -7 20 -24 0 -14 5 -28 11
-32 7 -4 9 0 5 13 -5 17 -1 19 43 17 26 0 53 -4 59 -8 6 -3 14 -1 17 5 4 5 14
8 22 5 9 -4 22 -1 29 5 12 10 13 9 8 -5 -3 -9 -2 -16 4 -16 6 0 12 5 14 12 6
16 41 19 51 5 7 -9 10 -9 14 1 2 6 12 12 20 12 13 0 14 -2 2 -17 -13 -16 -12
-17 4 -4 10 8 37 14 60 14 23 0 34 1 24 4 -28 7 -9 23 29 23 19 0 34 5 34 11
0 5 5 7 12 3 6 -4 55 -8 110 -9 87 -2 96 -1 81 12 -10 8 -12 11 -4 7 11 -5 13
-3 8 9 -3 10 -2 17 3 17 6 0 10 -6 11 -12 0 -10 2 -10 6 0 2 6 12 12 21 12 15
0 15 -2 2 -10 -8 -5 -12 -10 -7 -11 4 -1 10 -2 15 -3 4 0 22 -11 40 -24 28
-21 33 -22 38 -7 4 9 2 27 -5 41 -14 31 -14 29 8 31 10 1 24 -9 31 -23 9 -17
19 -22 32 -18 14 4 17 1 12 -13 -5 -14 -4 -15 4 -3 6 8 9 17 6 21 -2 4 5 10
16 14 12 4 17 11 13 18 -4 7 2 5 12 -3 14 -11 19 -12 22 -2 6 16 28 15 43 -3
7 -8 17 -12 24 -8 6 3 8 2 3 -2 -4 -5 0 -16 8 -25 14 -16 14 -18 0 -24 -9 -3
-13 -11 -9 -17 4 -8 0 -9 -15 -4 -28 9 -28 -14 0 -49 16 -20 19 -30 10 -39
-14 -14 14 -47 40 -47 12 0 16 -5 13 -15 -4 -8 -1 -22 6 -30 12 -15 5 -39 -10
-30 -4 3 -10 -1 -13 -9 -9 -23 4 -54 24 -59 10 -3 19 -13 18 -24 0 -10 -3 -13
-6 -6 -3 9 -9 10 -23 1 -14 -9 -16 -16 -9 -29 12 -23 6 -62 -11 -67 -9 -3 -11
2 -7 17 3 12 0 21 -6 21 -7 0 -5 5 3 10 8 5 10 10 4 10 -17 0 -37 -27 -29 -40
8 -13 -1 -13 -26 0 -10 6 -19 7 -19 2 0 -5 11 -15 25 -22 25 -13 35 -40 15
-40 -5 0 -10 4 -10 9 0 6 -9 8 -20 6 -12 -2 -23 2 -27 11 -4 12 -7 12 -19 -3
-7 -10 -13 -25 -13 -33 0 -10 3 -8 8 5 8 19 8 18 21 -5 9 -17 10 -25 1 -28 -6
-2 -8 -14 -5 -28 7 -26 2 -29 -26 -14 -17 9 -18 8 -13 -7 6 -15 4 -16 -9 -5
-14 11 -17 9 -23 -18 -4 -17 -13 -30 -22 -30 -10 0 -13 6 -9 16 3 9 -2 26 -12
38 -22 28 -62 19 -62 -14 0 -14 -4 -19 -12 -14 -7 4 -8 3 -4 -5 4 -6 12 -9 17
-6 5 4 9 -1 9 -9 0 -19 -9 -20 -34 -1 -10 7 -15 18 -11 24 3 6 1 11 -4 11 -6
0 -11 7 -11 15 0 14 -3 13 -24 -2 -14 -10 -21 -22 -16 -27 5 -5 6 -15 3 -22
-3 -8 0 -14 6 -14 6 0 11 7 11 15 0 9 6 12 15 9 8 -4 15 -17 15 -31 0 -21 -3
-23 -14 -14 -10 9 -15 8 -20 -4 -7 -19 -26 -20 -26 0 0 8 -5 15 -11 15 -6 0
-8 -8 -4 -19 4 -14 0 -23 -14 -30 -16 -9 -18 -8 -14 9 5 18 3 19 -21 11 -19
-8 -25 -7 -23 2 1 7 -4 11 -12 9 -8 -2 -11 3 -8 11 4 11 0 13 -14 10 -14 -4
-18 -1 -13 10 3 8 1 18 -5 22 -6 3 -11 0 -11 -7 0 -8 -7 -23 -16 -34 -15 -18
-15 -18 -4 3 8 18 8 22 -4 17 -8 -3 -27 3 -42 13 -19 12 -25 13 -20 4 7 -11 4
-13 -11 -9 -11 3 -28 1 -37 -4 -14 -8 -17 -6 -14 8 2 9 -3 19 -11 22 -9 3 -11
0 -6 -8 6 -10 4 -12 -9 -7 -10 4 -22 7 -27 7 -6 0 -8 4 -4 10 3 5 12 7 20 3 8
-3 15 -1 15 5 0 6 10 8 23 5 20 -4 20 -3 -7 22 -20 19 -32 23 -39 16 -6 -6
-16 -11 -21 -11 -6 0 -3 5 7 11 9 5 17 15 17 22 0 8 -2 9 -8 1 -10 -16 -45
-13 -60 5 -12 14 -13 14 -8 -3 6 -16 4 -17 -9 -6 -10 9 -12 17 -6 23 6 6 4 15
-5 25 -11 11 -18 12 -27 3 -8 -8 -8 -11 1 -11 7 0 12 -4 12 -10 0 -6 -11 -5
-26 2 -15 7 -21 14 -15 16 9 3 9 7 0 18 -8 10 -8 14 0 14 6 0 11 7 11 15 0 7
8 19 18 25 15 10 15 11 0 6 -12 -3 -15 -1 -11 10 4 10 -2 14 -20 14 -32 0 -45
-19 -24 -34 11 -9 12 -17 6 -29 -14 -24 -28 -21 -22 6 l5 22 -19 -21 c-18 -20
-22 -20 -44 -7 -20 12 -21 13 -3 8 12 -3 26 0 32 8 9 10 4 12 -25 9 -23 -3
-33 -1 -29 6 3 5 16 8 29 6 20 -4 20 -4 2 5 -13 6 -29 4 -49 -6 -22 -12 -27
-12 -24 -1 10 28 -54 57 -80 36 -10 -9 -12 -8 -10 3 2 8 7 17 11 20 5 4 -3 9
-17 11 -29 6 -30 5 -15 -25 9 -20 9 -20 -4 -4 -8 9 -20 17 -26 17 -7 0 -9 4
-6 10 3 6 2 10 -4 10 -5 0 -13 -5 -16 -10 -4 -6 -11 -8 -16 -4 -5 3 -7 10 -4
15 4 5 1 9 -4 9 -6 0 -11 -5 -11 -11 0 -5 -5 -7 -12 -3 -7 5 -8 3 -3 -6 4 -7
2 -15 -4 -19 -8 -5 -4 -16 13 -34 13 -14 22 -28 20 -31 -2 -3 -1 -4 3 -1 3 3
15 -3 25 -12 18 -16 18 -16 12 3 -4 10 5 1 20 -21 16 -22 49 -62 76 -90 51
-53 90 -120 90 -155 0 -24 -15 -27 -24 -4 -5 12 -8 13 -20 2 -10 -9 -11 -15
-2 -20 6 -5 1 -8 -12 -8 -13 0 -21 4 -18 8 9 15 -12 35 -41 37 -15 1 -34 3
-40 3 -7 1 -13 15 -13 31 0 27 -21 57 -32 46 -3 -3 -3 6 -1 20 5 25 -10 35
-22 15 -11 -18 -23 -10 -30 19 -4 21 -11 28 -22 24 -9 -4 -11 -8 -4 -12 6 -4
-9 -12 -32 -18 -36 -10 -46 -18 -62 -52 -9 -22 -24 -42 -31 -45 -8 -3 -14 -17
-14 -32 0 -21 -4 -25 -19 -21 -13 3 -23 -3 -32 -19 -7 -13 -27 -29 -46 -36
-20 -7 -32 -17 -29 -25 3 -7 1 -15 -5 -19 -6 -3 -8 -12 -5 -20 3 -8 0 -14 -5
-14 -6 0 -9 -9 -6 -19 3 -12 -1 -22 -9 -25 -8 -3 -14 -13 -14 -22 0 -10 -8
-26 -17 -37 -11 -13 -12 -17 -4 -12 11 6 13 4 8 -8 -3 -8 1 -21 9 -28 9 -8 11
-16 5 -23 -7 -9 0 -11 25 -11 19 1 34 -3 34 -8 0 -5 -9 -7 -20 -4 -11 3 -17 1
-14 -4 7 -12 -36 -48 -58 -49 -10 0 -18 -8 -18 -17 0 -9 -3 -13 -7 -10 -6 7
-22 -16 -42 -60 -12 -27 -23 -30 -19 -7 5 29 -34 24 -64 -8 -22 -24 -28 -40
-28 -77 -1 -46 -1 -46 -19 -24 l-18 22 -12 -26 c-6 -14 -15 -23 -18 -19 -4 3
-1 12 5 18 15 15 16 92 2 83 -6 -4 -8 -10 -6 -14 3 -4 -4 -12 -15 -19 -11 -7
-19 -8 -19 -2 0 5 4 10 8 10 4 0 15 13 25 29 13 22 14 30 5 34 -9 3 -7 11 7
28 l20 24 -22 -19 c-24 -20 -27 -17 -24 29 1 17 0 18 -7 3 -8 -19 -70 -68 -85
-68 -6 0 -16 -8 -23 -17 -12 -17 -13 -16 -14 6 0 28 -9 24 -15 -8 -2 -12 -13
-33 -24 -48 -12 -14 -21 -33 -21 -43 0 -19 -46 -45 -54 -29 -2 5 -3 4 -2 -3 2
-7 14 -12 27 -11 23 2 23 1 4 -8 -17 -8 -20 -18 -17 -51 3 -28 1 -39 -7 -34
-6 4 -11 0 -12 -11 0 -14 -2 -13 -9 5 -5 12 -16 25 -25 28 -8 3 -12 10 -9 15
3 5 0 17 -5 26 -8 15 -10 11 -11 -19 0 -38 17 -87 35 -100 6 -5 5 -8 -3 -8 -7
0 -17 10 -22 23 l-9 22 0 -23 c-1 -14 -5 -21 -12 -17 -6 4 -5 -2 3 -14 15 -24
24 -27 31 -8 3 6 4 2 4 -10 -1 -12 -5 -19 -9 -17 -4 3 -8 1 -8 -4 0 -6 7 -13
16 -16 8 -3 12 -2 9 4 -3 6 -1 10 5 10 6 0 8 5 5 10 -3 6 -2 10 3 10 6 0 13
-12 17 -27 3 -14 13 -36 21 -47 12 -18 14 -18 14 -3 0 10 5 15 10 12 6 -3 11
2 11 12 1 17 2 17 6 1 7 -29 33 -21 34 10 l1 27 7 -25 c11 -34 -5 -53 -31 -39
-16 9 -19 8 -16 -3 3 -7 10 -14 16 -14 25 -3 27 -5 12 -14 -13 -8 -13 -10 1
-10 9 0 19 9 22 21 4 13 10 18 18 13 9 -5 11 -1 7 14 -4 12 -2 22 4 22 5 0 8
-10 6 -22 -2 -13 -9 -22 -15 -21 -7 2 -10 -4 -7 -11 3 -8 12 -12 21 -9 8 3 19
0 24 -8 7 -11 9 -11 9 4 0 22 16 22 30 0 9 -16 10 -16 8 -1 -2 9 1 17 6 16 5
0 13 6 17 14 7 10 9 10 9 1 0 -7 7 -13 15 -13 8 0 15 -6 15 -12 0 -7 3 -22 6
-34 4 -14 1 -21 -9 -21 -9 0 -13 8 -10 21 4 16 2 18 -5 7 -6 -8 -15 -10 -23
-5 -11 6 -12 5 -2 -7 18 -22 -76 -23 -100 -1 -15 14 -18 14 -15 2 2 -8 14 -20
28 -27 14 -7 19 -12 10 -13 -9 0 -26 7 -38 16 -14 10 -37 14 -58 12 -19 -2
-34 0 -34 4 0 4 -7 8 -16 8 -8 0 -13 3 -11 8 3 4 -17 6 -45 6 -32 -1 -51 3
-55 11 -2 8 -11 16 -18 19 -10 3 -12 0 -8 -12 6 -15 5 -15 -10 -3 -12 9 -17
10 -17 2 0 -7 -4 -10 -9 -7 -5 4 -28 7 -50 8 -33 1 -39 4 -29 15 6 7 8 16 4
20 -3 3 -6 2 -6 -4 0 -6 -16 -13 -35 -15 -34 -4 -46 4 -25 17 6 3 10 11 10 16
0 6 -10 3 -22 -5 -26 -19 -47 -21 -30 -4 19 19 14 33 -6 15 -10 -10 -22 -14
-25 -11 -4 4 -13 1 -22 -6 -9 -7 -18 -10 -22 -7 -3 4 10 13 29 21 20 9 38 23
42 32 6 15 5 15 -19 0 -17 -11 -25 -13 -25 -4 0 6 -7 3 -15 -8 -13 -18 -14
-18 -8 4 4 15 11 21 20 18 8 -3 25 1 38 10 14 9 32 14 40 10 8 -3 14 0 12 7
-1 7 5 12 13 12 8 0 18 8 22 18 4 9 13 17 19 17 8 0 7 -5 -2 -17 -12 -14 -12
-16 0 -12 22 7 25 28 6 35 -8 4 -24 -1 -34 -10 -24 -22 -38 -20 -17 3 15 16
15 19 1 24 -14 6 -16 3 -19 -35 -1 -14 -26 -37 -40 -38 -5 0 -1 9 9 20 9 10
15 26 12 34 -4 9 -2 18 3 21 6 4 10 11 10 18 0 18 -21 -7 -24 -29 -2 -12 -10
-18 -22 -17 -11 1 -13 0 -7 -3 20 -9 -14 -52 -47 -59 -16 -4 -43 -22 -60 -42
-17 -19 -33 -33 -35 -31 -2 2 7 16 20 31 14 14 25 31 25 37 0 5 8 10 18 10 11
0 27 9 37 20 10 11 15 20 12 20 -16 0 -87 -33 -83 -39 1 -3 -13 -19 -32 -36
-29 -25 -33 -26 -24 -8 16 28 15 33 -4 33 -8 0 -12 5 -9 10 3 6 3 15 0 21 -9
13 -45 -18 -45 -39 0 -8 -6 -12 -15 -8 -26 10 -33 -86 -7 -103 5 -3 11 -13 14
-21 4 -11 8 -9 16 10 14 32 15 10 2 -25 -7 -17 -7 -24 0 -20 6 3 10 0 10 -7 0
-9 3 -9 10 2 8 12 10 11 10 -5 0 -12 -6 -27 -12 -34 -11 -10 -10 -11 3 -6 19
7 32 -24 29 -65 -2 -21 0 -22 14 -11 9 8 19 12 21 9 10 -10 -6 -35 -29 -46
-19 -8 -22 -16 -18 -43 4 -30 6 -31 18 -14 10 14 11 21 3 26 -16 9 -2 29 20
29 9 0 22 5 27 10 7 7 17 5 30 -6 18 -15 18 -15 -5 -10 -34 7 -60 -9 -54 -34
3 -11 10 -20 16 -20 17 0 77 62 78 79 0 11 3 10 9 -4 7 -18 9 -17 24 15 8 19
15 28 16 18 0 -34 60 -29 60 6 0 17 2 18 10 6 6 -10 10 -11 10 -2 0 6 8 12 18
12 14 0 15 2 2 10 -19 12 -13 17 43 32 40 10 56 10 111 -5 76 -20 110 -22 100
-5 -5 8 -2 9 9 5 10 -3 17 -2 17 3 0 5 9 8 20 7 11 -1 20 -6 20 -12 0 -5 5 -3
11 5 9 12 12 13 16 1 4 -11 7 -11 13 0 5 7 18 14 30 16 15 2 19 -1 14 -9 -5
-8 -1 -7 10 2 16 13 20 12 32 -4 7 -11 11 -24 7 -30 -3 -6 5 -1 18 11 21 19
26 20 43 7 11 -8 27 -14 35 -14 14 0 14 2 1 11 -13 9 -13 10 0 6 8 -2 14 -12
14 -21 -2 -13 1 -14 12 -5 22 18 42 3 47 -33 3 -29 4 -28 5 10 2 45 15 54 32
23 16 -31 13 -51 -7 -44 -10 3 -15 3 -12 -1 4 -4 16 -9 28 -11 21 -4 22 -2 16
37 -5 29 -4 39 4 34 6 -4 11 -25 11 -47 0 -27 4 -38 11 -33 8 4 9 -1 5 -17 -6
-20 -5 -21 4 -7 7 11 7 25 0 44 -11 29 -8 40 10 29 6 -4 9 -13 6 -21 -3 -8 -2
-14 3 -14 12 0 0 -104 -13 -112 -7 -5 -5 -8 6 -8 10 0 19 11 23 31 4 17 13 42
21 57 l14 27 0 -27 c0 -16 -5 -28 -11 -28 -5 0 -7 -4 -4 -10 10 -17 25 -11 25
9 0 14 6 19 20 18 11 -1 20 -3 20 -4 0 -9 -45 -45 -58 -47 -9 -2 -18 -8 -20
-14 -2 -7 3 -10 12 -6 11 4 16 0 17 -12 1 -14 3 -13 9 6 l8 25 1 -24 c1 -24 1
-24 16 -5 13 17 14 18 15 1 0 -10 6 -20 13 -22 7 -3 12 -25 12 -55 1 -30 -2
-45 -7 -37 -6 8 -8 6 -7 -8 3 -40 -2 -50 -13 -25 -10 22 -12 23 -15 6 -3 -10
0 -23 6 -29 7 -7 7 -16 0 -31 -7 -13 -1 -9 15 9 38 45 31 24 -9 -26 -19 -24
-35 -51 -35 -60 0 -9 -6 -31 -14 -49 -12 -30 -13 -31 -19 -10 -3 13 1 48 9 79
7 30 14 68 14 84 0 16 4 26 10 22 6 -3 10 -1 10 5 0 6 -8 10 -17 8 -11 -2 -17
-11 -15 -23 1 -11 -7 -42 -17 -70 l-20 -50 -1 45 c-1 36 -3 41 -11 25 -7 -16
-8 -14 -4 10 10 58 11 86 3 91 -4 3 -8 -13 -8 -35 0 -23 -4 -41 -8 -41 -5 0
-14 -17 -20 -39 -13 -42 -59 -104 -82 -109 -8 -2 -21 -8 -30 -13 -10 -7 -3 -8
23 -4 24 3 36 1 32 -5 -3 -5 -12 -10 -19 -10 -8 0 -19 -6 -25 -14 -24 -28 26
-5 71 33 l43 36 -35 -43 c-19 -24 -42 -53 -50 -64 -14 -20 -14 -21 18 -4 18 9
32 19 32 22 0 3 -6 2 -12 -2 -7 -4 -9 -3 -5 1 29 33 45 -25 16 -62 -13 -17
-13 -17 7 -1 23 20 39 24 28 7 -4 -8 1 -9 16 -4 22 7 22 7 4 -22 -18 -28 -18
-28 1 -13 11 8 22 18 25 22 3 4 18 1 34 -7 35 -19 36 -19 36 3 0 10 8 2 17
-18 10 -19 20 -37 23 -40 3 -3 12 -18 20 -35 l14 -30 4 25 c3 16 9 -1 18 -50
6 -41 14 -82 16 -90 3 -8 3 -12 1 -7 -3 4 -8 5 -12 3 -4 -3 -8 10 -9 27 -4 53
-72 182 -72 137 0 -5 -4 -10 -9 -10 -5 0 -7 10 -5 23 2 12 1 15 -2 7 -4 -8
-12 -21 -18 -29 -7 -9 -7 -12 -1 -9 6 4 17 3 24 -1 17 -11 33 -83 21 -95 -10
-10 -14 11 -11 59 0 14 -3 12 -13 -10 -8 -16 -12 -44 -9 -62 3 -20 1 -33 -5
-33 -5 0 -8 10 -5 23 4 18 3 19 -7 7 -10 -13 -11 -12 -7 5 3 11 8 29 12 40 l7
20 -14 -20 c-21 -29 -28 -54 -18 -60 6 -4 10 -18 10 -33 0 -19 3 -23 9 -13 7
11 10 10 15 -5 10 -33 10 -124 0 -134 -6 -6 -9 10 -7 47 2 51 1 54 -12 37 -14
-18 -15 -17 -13 11 3 52 -2 85 -12 85 -5 0 -10 -9 -10 -19 0 -27 -11 -52 -20
-46 -4 2 -5 -7 -2 -22 3 -17 1 -24 -6 -19 -7 4 -7 -4 1 -24 9 -23 9 -35 -1
-50 -17 -27 -15 -39 3 -16 8 11 15 16 15 10 1 -21 20 23 20 46 0 19 3 22 9 11
12 -19 -8 -58 -51 -103 -34 -35 -93 -66 -105 -54 -3 3 1 6 10 6 9 0 17 5 17
11 0 5 4 8 10 4 13 -8 50 31 50 54 0 11 -6 26 -13 33 -14 14 -11 42 3 33 4 -3
8 10 7 29 -1 30 -3 32 -14 18 -7 -9 -13 -23 -13 -29 0 -16 -12 -17 -27 -2 -9
9 -14 5 -19 -17 l-8 -29 -6 25 c-4 17 -12 24 -26 22 -11 -2 -15 0 -9 5 6 4 12
18 12 30 1 16 -3 20 -15 16 -13 -5 -14 -3 -5 7 6 7 9 19 6 26 -3 8 -1 14 4 14
5 0 15 -20 22 -44 11 -40 15 -44 34 -37 22 8 37 51 18 51 -6 0 -11 -5 -11 -12
0 -6 -6 -3 -14 8 -8 10 -12 21 -10 24 3 2 9 -2 14 -10 7 -11 9 -6 7 17 -2 38
-5 40 -22 16 -10 -14 -16 -15 -28 -5 -12 10 -16 9 -22 -5 -11 -24 -12 -46 -3
-59 8 -11 -9 -84 -19 -84 -3 0 -3 18 1 39 3 22 2 42 -3 45 -8 5 -18 -14 -35
-66 -3 -10 -10 -18 -16 -18 -13 0 -13 17 1 25 5 4 8 12 6 18 -2 7 2 18 10 25
7 7 13 19 12 25 0 9 -2 9 -5 0 -3 -7 -12 -9 -20 -6 -9 3 -14 -2 -16 -18 -2
-43 -3 -48 -11 -55 -10 -10 -9 24 2 61 4 17 5 39 0 50 -7 18 -8 17 -8 -5 -1
-15 -5 -30 -9 -35 -5 -6 -14 -30 -22 -55 -11 -38 -14 -42 -21 -25 -5 13 -8 15
-9 5 0 -8 -7 -28 -15 -45 -8 -16 -13 -21 -11 -10 18 85 18 102 -3 108 -14 3
-22 -1 -26 -14 -4 -11 -11 -16 -17 -13 -6 4 -6 10 1 17 19 19 12 31 -7 14 -10
-10 -23 -17 -29 -17 -6 0 -14 -7 -17 -16 -4 -9 -9 -14 -13 -11 -3 4 -1 12 4
19 5 7 8 34 5 60 -3 37 -7 45 -20 41 -10 -4 -13 -2 -8 5 11 19 -5 14 -20 -5
-13 -17 -13 -17 -14 0 0 21 -30 23 -30 2 0 -8 -9 -20 -20 -27 -11 -7 -20 -23
-20 -35 0 -25 -10 -29 -28 -11 -18 18 -15 36 7 43 11 3 22 13 25 21 4 10 2 13
-6 8 -8 -5 -9 -2 -5 9 3 10 2 17 -4 17 -5 0 -12 -7 -15 -15 -4 -8 -10 -15 -16
-15 -5 0 -6 5 -3 10 3 6 1 10 -4 10 -6 0 -11 7 -11 15 0 8 -4 15 -9 15 -5 0
-9 6 -8 13 0 6 -1 27 -1 44 -2 31 -4 32 -28 23 -31 -12 -34 -12 -34 -2 0 4 14
16 30 25 17 10 30 25 30 33 0 8 -4 13 -8 10 -4 -2 -9 8 -10 24 -2 20 5 33 19
44 12 8 18 19 15 25 -9 13 -46 5 -65 -15 -15 -15 -14 -15 6 -5 32 16 39 13 17
-8 -10 -10 -22 -17 -25 -15 -4 2 -10 -8 -13 -22 -4 -16 -12 -24 -20 -21 -8 3
-19 0 -25 -6 -8 -8 -11 -6 -11 7 0 16 -2 17 -16 5 -15 -12 -16 -11 -9 10 6 20
4 23 -9 18 -9 -4 -23 -10 -31 -13 -8 -3 -15 -2 -15 4 0 14 28 35 38 28 10 -6
39 21 31 28 -12 11 -48 15 -54 6 -10 -16 -25 -12 -25 8 0 9 9 23 21 30 11 7
26 27 34 45 11 27 11 33 -4 43 -15 12 -15 13 2 19 9 4 17 11 17 16 0 4 -7 6
-16 2 -14 -5 -16 -2 -10 20 3 14 1 38 -5 54 -7 15 -11 38 -10 50 2 17 -2 21
-13 17 -23 -9 -46 -50 -46 -84 0 -19 -5 -30 -14 -30 -14 0 -30 -29 -21 -38 3
-3 5 0 5 6 0 7 5 12 10 12 19 0 10 -31 -12 -40 -19 -8 -18 -9 10 -4 23 4 32 2
32 -8 -1 -22 -28 -51 -41 -43 -11 7 -10 -18 2 -65 3 -9 -3 -15 -15 -15 -10 0
-22 -10 -27 -22 -11 -30 -25 -35 -40 -17 -11 14 -11 18 2 28 25 19 13 103 -20
135 -21 20 -27 35 -25 65 1 22 -5 50 -12 64 -9 18 -10 31 -3 45 6 10 8 21 5
24 -9 9 -36 -18 -36 -34 0 -13 -3 -13 -15 -3 -13 11 -13 15 -2 29 22 26 32 45
19 37 -7 -4 -12 -2 -12 3 0 6 4 11 9 11 5 0 11 6 14 13 4 10 -4 14 -24 14 -29
0 -39 -12 -17 -19 15 -5 1 -28 -17 -28 -7 0 -15 6 -18 14 -8 21 4 56 19 56 10
0 13 7 8 25 -5 19 -2 25 10 25 14 0 15 4 6 20 -6 10 -16 17 -23 15 -18 -7 -77
52 -78 78 -1 12 -1 40 0 62 0 36 -1 37 -8 13 -5 -15 -7 -44 -5 -65 3 -21 6
-57 8 -81 2 -24 11 -51 20 -61 31 -34 13 -61 -26 -39 -30 17 -38 28 -38 55 0
16 4 21 15 17 19 -8 19 5 0 30 -8 11 -15 29 -15 40 0 11 -8 28 -17 39 -17 18
-17 19 0 32 16 11 17 19 9 49 -6 20 -8 36 -6 36 3 0 -2 14 -11 30 -9 17 -20
30 -25 30 -6 0 -10 9 -10 19 0 11 -3 27 -6 35 -6 15 -8 15 -19 -1 -11 -15 -13
-15 -24 6 -10 17 -16 20 -26 11 -10 -8 -16 -3 -25 22 -10 25 -14 29 -17 15 -3
-9 -9 -15 -14 -12 -12 8 -12 45 1 45 12 0 13 47 1 54 -5 3 -18 -9 -29 -26
l-21 -32 -10 27 c-6 16 -11 40 -11 55 0 27 -20 70 -20 45 0 -7 -4 -13 -10 -13
-14 0 -12 36 3 52 10 11 13 37 8 82 -1 5 -7 3 -15 -3 -12 -10 -14 -6 -13 21 2
23 -2 32 -12 30 -10 -2 -11 2 -5 15 12 26 7 105 -7 114 -16 10 -39 77 -39 116
0 17 -5 33 -11 35 -6 2 -17 26 -24 53 -15 54 -19 39 -15 -47 2 -43 -2 -51 -37
-83 -40 -38 -110 -78 -155 -89 -85 -20 -193 48 -243 151 -81 169 -112 296
-122 498 -7 154 4 229 52 355 18 47 37 109 44 138 16 76 14 214 -5 309 -18 89
-14 123 16 151 22 20 63 19 88 -1 21 -16 68 -115 102 -212 32 -93 47 -215 43
-355 l-2 -75 39 -27 c24 -16 42 -39 46 -55 3 -15 12 -37 19 -48 7 -12 16 -47
19 -80 8 -81 20 -91 29 -22 3 20 1 37 -3 37 -10 0 -9 -47 -12 758 l-3 684 26
67 c25 63 27 72 20 171 -5 58 -6 122 -3 143 2 20 0 43 -6 50 -10 12 19 122 37
140 5 5 4 24 -2 42 -9 30 -7 37 17 65 26 32 34 60 16 60 -5 0 -10 6 -10 14 0
8 -6 16 -12 18 -8 3 -4 13 12 29 43 41 51 56 66 119 8 34 25 76 39 94 14 18
25 39 25 46 0 13 40 78 99 161 59 83 159 187 220 228 36 24 113 63 171 86 58
23 128 54 157 68 29 15 63 27 76 27 13 0 27 4 33 8 15 14 89 34 110 31 10 -2
33 2 50 9 18 8 47 12 65 10 20 -2 38 3 45 10 5 8 29 14 52 15 23 1 42 5 42 10
0 10 7 9 30 -5z m-820 -100 c-38 -23 -63 -13 -30 12 13 10 32 15 42 12 16 -4
15 -7 -12 -24z m2535 -1178 c3 -6 -1 -7 -9 -4 -18 7 -21 14 -7 14 6 0 13 -4
16 -10z m1 -32 c4 -7 4 -10 -1 -6 -4 4 -15 2 -24 -5 -14 -11 -14 -10 -2 6 16
20 18 21 27 5z m68 -174 c3 -8 2 -12 -4 -9 -6 3 -10 10 -10 16 0 14 7 11 14
-7z m-34 -1 c0 -5 -4 -14 -9 -21 -6 -10 -10 -9 -14 7 -3 14 0 21 9 21 8 0 14
-3 14 -7z m20 -43 c0 -5 -7 -10 -16 -10 -8 0 -12 5 -9 10 3 6 10 10 16 10 5 0
9 -4 9 -10z m-460 -116 c0 -14 -3 -14 -15 -4 -8 7 -15 14 -15 16 0 2 7 4 15 4
8 0 15 -7 15 -16z m-64 -4 c8 0 14 -4 14 -9 0 -6 -13 -6 -34 0 -22 6 -44 6
-62 -1 -28 -10 -28 -9 -9 6 13 10 30 13 49 10 16 -3 35 -6 42 -6z m-212 -9 c3
-5 -1 -11 -9 -14 -9 -4 -12 -1 -8 9 6 16 10 17 17 5z m313 3 c-3 -3 -12 -4
-19 -1 -8 3 -5 6 6 6 11 1 17 -2 13 -5z m8 -50 c-14 -5 -22 -14 -18 -19 5 -4
2 -5 -5 -1 -7 4 -10 12 -7 17 4 5 2 9 -3 9 -5 0 -9 6 -9 13 0 10 8 11 34 2
l34 -10 -26 -11z m-510 -23 c-3 -6 -11 -8 -17 -5 -6 4 -5 9 3 15 16 10 23 4
14 -10z m464 5 c-2 -2 -20 -6 -39 -10 l-35 -6 35 14 c31 12 51 13 39 2z m-559
-11 c0 -8 -2 -15 -4 -15 -2 0 -6 7 -10 15 -3 8 -1 15 4 15 6 0 10 -7 10 -15z
m547 -51 c-3 -3 -12 -4 -19 -1 -8 3 -5 6 6 6 11 1 17 -2 13 -5z m497 -26 c-2
-3 4 -9 13 -11 13 -3 13 -5 3 -6 -21 -1 -53 26 -45 38 4 7 10 7 19 -2 8 -6 12
-15 10 -19z m-99 -6 c-3 -3 -11 0 -18 7 -9 10 -8 11 6 5 10 -3 15 -9 12 -12z
m50 -2 c13 -6 15 -9 5 -9 -8 0 -22 4 -30 9 -18 12 -2 12 25 0z m148 -7 l32
-18 -29 -3 c-19 -2 -36 3 -50 17 -18 19 -19 21 -3 21 10 0 32 -8 50 -17z m-70
-20 c-7 -2 -19 -2 -25 0 -7 3 -2 5 12 5 14 0 19 -2 13 -5z m-6 -19 c-3 -3 -12
-4 -19 -1 -8 3 -5 6 6 6 11 1 17 -2 13 -5z m56 -11 c-7 -2 -21 -2 -30 0 -10 3
-4 5 12 5 17 0 24 -2 18 -5z m-1398 -33 c-3 -5 -13 -10 -21 -10 -8 0 -14 5
-14 10 0 6 9 10 21 10 11 0 17 -4 14 -10z m70 -240 c3 -5 1 -10 -4 -10 -6 0
-11 5 -11 10 0 6 2 10 4 10 3 0 8 -4 11 -10z m1875 -393 c9 -7 30 -37 48 -67
17 -30 32 -52 32 -47 0 11 48 -22 54 -39 3 -9 -1 -14 -14 -14 -10 0 -22 9 -25
21 -4 11 -9 18 -12 16 -2 -3 -21 10 -41 29 -20 19 -52 39 -69 45 -24 8 -33 17
-33 33 0 13 3 26 7 29 10 11 36 8 53 -6z m-386 -166 c3 -5 -1 -11 -9 -14 -9
-4 -12 -1 -8 9 6 16 10 17 17 5z m-1204 -61 c0 -5 -5 -10 -11 -10 -5 0 -7 5
-4 10 3 6 8 10 11 10 2 0 4 -4 4 -10z m-24 -22 c5 -8 0 -9 -15 -5 -18 4 -20 3
-10 -9 8 -10 8 -14 0 -14 -6 0 -11 2 -11 4 0 2 -3 11 -6 20 -7 19 31 23 42 4z
m854 3 c0 -15 -17 -22 -36 -14 -16 6 -16 7 2 14 27 11 34 10 34 0z m-913 -133
c-2 -7 0 -21 5 -30 6 -13 5 -16 -6 -12 -18 7 -27 42 -12 48 17 7 18 7 13 -6z
m1352 -12 c-8 -6 -13 -20 -11 -31 3 -19 2 -19 -8 -2 -8 13 -9 22 -1 31 6 7 8
16 4 20 -4 4 1 4 11 0 16 -6 17 -9 5 -18z m530 -18 c1 -4 -5 -5 -13 -2 -8 3
-12 13 -8 27 5 20 6 20 13 1 4 -10 8 -22 8 -26z m1 -73 c0 -30 -4 -55 -9 -55
-20 0 -42 13 -33 19 6 3 11 22 13 41 3 41 7 50 20 50 5 0 9 -25 9 -55z m-1896
17 c3 -5 -1 -9 -9 -9 -8 0 -12 4 -9 9 3 4 7 8 9 8 2 0 6 -4 9 -8z m71 -22 c3
-5 1 -10 -4 -10 -6 0 -11 5 -11 10 0 6 2 10 4 10 3 0 8 -4 11 -10z m1325 -72
c0 -12 -1 -19 -3 -17 -1 2 -9 12 -16 22 -12 14 -11 17 3 17 10 0 16 -8 16 -22z
m-1272 -83 c-11 -11 -37 7 -31 22 5 13 8 13 21 -1 9 -9 13 -18 10 -21z m1666
9 c9 -8 16 -29 16 -45 0 -44 17 -69 45 -69 14 0 26 -4 26 -10 7 -53 -9 -119
-42 -177 -17 -29 -34 -53 -37 -54 -4 0 -15 -2 -24 -4 -81 -15 -94 -15 -125 5
-50 30 -43 47 24 56 38 4 63 3 76 -5 11 -8 16 -8 12 -2 -3 6 0 11 8 11 15 0
27 48 27 111 0 26 -8 46 -28 69 -16 18 -35 48 -42 68 -11 32 -11 37 6 49 23
17 39 16 58 -3z m-86 -126 c16 -16 -2 -44 -34 -52 -44 -11 -101 41 -61 57 23
10 83 7 95 -5z m-590 -103 c2 -2 2 -14 0 -27 -4 -23 -4 -23 -18 4 -7 15 -17
25 -21 22 -5 -3 -9 0 -9 6 0 10 36 6 48 -5z m132 -5 c0 -5 -5 -10 -11 -10 -5
0 -7 5 -4 10 3 6 8 10 11 10 2 0 4 -4 4 -10z m-45 -30 c3 -5 1 -10 -4 -10 -6
0 -11 5 -11 10 0 6 2 10 4 10 3 0 8 -4 11 -10z m-145 -30 c0 -5 -2 -10 -4 -10
-3 0 -8 5 -11 10 -3 6 -1 10 4 10 6 0 11 -4 11 -10z m-210 -20 c16 -30 3 -42
-26 -24 -19 13 -22 20 -13 30 16 19 26 17 39 -6z m-950 -60 c-8 -5 -17 -7 -19
-4 -3 3 1 9 9 14 8 5 17 7 19 4 3 -3 -1 -9 -9 -14z m1230 -60 c0 -5 -4 -10
-10 -10 -5 0 -10 5 -10 10 0 6 5 10 10 10 6 0 10 -4 10 -10z m75 -50 c8 -13
-5 -13 -25 0 -13 8 -13 10 2 10 9 0 20 -4 23 -10z m-1400 -140 c3 -5 2 -10 -4
-10 -5 0 -13 5 -16 10 -3 6 -2 10 4 10 5 0 13 -4 16 -10z m833 -12 c-2 -6 -10
-14 -16 -16 -7 -2 -10 2 -6 12 7 18 28 22 22 4z m62 -32 c-1 -4 8 -16 20 -26
12 -11 19 -24 15 -29 -3 -6 0 -11 7 -11 10 0 9 -3 -2 -11 -13 -9 -13 -10 0 -6
8 2 14 13 12 23 -2 15 4 12 27 -13 16 -17 32 -29 34 -26 3 3 11 2 16 -2 8 -4
6 -11 -3 -21 -18 -17 -50 -19 -43 -1 3 8 -7 13 -30 15 -21 1 -32 -2 -28 -8 8
-13 5 -12 -34 1 -30 11 -43 29 -19 29 6 0 3 6 -7 14 -11 8 -24 12 -29 9 -5 -4
-6 -1 -2 5 5 9 13 9 27 2 10 -6 19 -8 19 -5 0 3 0 8 0 12 0 4 -7 8 -16 9 -9 1
-19 6 -22 9 -4 4 0 6 8 5 26 -4 40 0 40 10 0 6 -8 10 -17 10 -15 0 -16 2 -3
10 17 11 32 9 30 -4z m-2666 -31 c-4 -8 -8 -15 -10 -15 -2 0 -4 7 -4 15 0 8 4
15 10 15 5 0 7 -7 4 -15z m2427 -3 c-7 -2 -18 1 -23 6 -8 8 -4 9 13 5 13 -4
18 -8 10 -11z m39 14 c0 -3 -4 -8 -10 -11 -5 -3 -10 -1 -10 4 0 6 5 11 10 11
6 0 10 -2 10 -4z m20 -26 c-8 -6 -11 -10 -7 -10 4 0 2 -6 -5 -14 -14 -15 -28
-12 -28 6 0 6 3 8 7 5 3 -4 13 2 21 14 8 11 17 18 20 14 4 -3 0 -10 -8 -15z
m-162 -25 c-3 -3 -9 2 -12 12 -6 14 -5 15 5 6 7 -7 10 -15 7 -18z m192 5 c0
-5 -2 -10 -4 -10 -3 0 -8 5 -11 10 -3 6 -1 10 4 10 6 0 11 -4 11 -10z m64 -15
c11 -8 15 -15 10 -15 -6 0 -19 7 -30 15 -10 8 -14 14 -9 14 6 0 19 -6 29 -14z
m-166 -30 c-3 -3 -9 2 -12 12 -6 14 -5 15 5 6 7 -7 10 -15 7 -18z m-999 -37
c-13 -25 -22 -23 -14 5 5 20 5 20 -9 -3 -8 -14 -12 -29 -9 -35 2 -5 -2 -2 -10
7 -8 10 -18 14 -23 10 -4 -4 -2 1 5 11 8 9 16 15 19 12 3 -3 12 5 20 16 11 16
16 18 23 8 4 -7 3 -21 -2 -31z m1069 30 c-2 -7 4 -12 13 -11 8 2 30 -13 49
-32 28 -29 33 -42 34 -85 1 -27 -3 -50 -8 -50 -5 0 -6 19 -3 43 3 23 4 36 1
29 -4 -8 -21 6 -47 38 -22 27 -44 50 -49 50 -4 0 -8 7 -8 15 0 8 5 15 10 15 6
0 9 -6 8 -12z m-800 -3 c-2 -1 -12 -7 -24 -13 -16 -8 -21 -8 -21 2 0 8 11 14
24 14 13 0 23 -2 21 -3z m-123 -45 c-10 -11 -20 -18 -23 -15 -3 3 3 14 13 25
10 11 20 18 23 15 3 -3 -3 -14 -13 -25z m1155 20 c0 -5 6 -10 14 -10 8 0 18
-4 21 -10 10 -17 -11 -11 -36 10 -13 10 -18 19 -11 20 6 0 12 -4 12 -10z m-58
-94 c-3 -5 -14 2 -24 15 -11 13 -28 34 -39 47 -36 42 -19 37 25 -8 24 -25 41
-49 38 -54z m39 46 c-7 -2 -25 8 -40 23 l-26 27 39 -23 c22 -13 34 -25 27 -27z
m104 32 c0 -5 -8 -10 -17 -12 -11 -2 -18 3 -18 11 0 9 8 14 18 13 9 -2 17 -7
17 -12z m-735 -24 c6 -11 8 -20 6 -20 -3 0 -10 9 -16 20 -6 11 -8 20 -6 20 3
0 10 -9 16 -20z m-155 -38 c-8 -9 -35 20 -28 31 4 6 11 3 19 -8 8 -10 12 -21
9 -23z m945 6 l23 -33 -29 25 c-16 14 -33 28 -38 32 -6 5 -3 8 5 8 8 0 26 -15
39 -32z m-150 -20 c0 -13 -5 -9 -31 19 l-24 26 27 -19 c15 -10 28 -22 28 -26z
m80 32 c13 -8 13 -10 -2 -10 -9 0 -20 5 -23 10 -8 13 5 13 25 0z m-1440 -4 c0
-2 -6 -9 -14 -15 -11 -9 -16 -9 -22 0 -4 7 -3 9 4 5 6 -3 13 -2 17 4 6 10 15
14 15 6z m476 -33 c15 -20 22 -33 15 -28 -10 6 -12 2 -7 -16 4 -13 -4 -2 -18
24 -15 27 -26 50 -26 53 0 10 10 2 36 -33z m665 20 c13 -16 12 -17 -3 -4 -10
7 -18 15 -18 17 0 8 8 3 21 -13z m-521 -35 c0 -6 -8 -4 -18 5 -10 10 -22 14
-27 10 -4 -5 -5 -2 -1 5 9 14 46 -2 46 -20z m860 7 c13 -14 21 -25 18 -25 -2
0 -15 11 -28 25 -13 14 -21 25 -18 25 2 0 15 -11 28 -25z m-1549 -8 c-10 -9
-11 -8 -5 6 3 10 9 15 12 12 3 -3 0 -11 -7 -18z m266 1 c-3 -8 -6 -5 -6 6 -1
11 2 17 5 13 3 -3 4 -12 1 -19z m943 0 c8 -21 9 -21 10 -3 0 17 2 17 10 5 5
-8 10 -17 10 -20 0 -8 -40 -10 -41 -2 0 4 -2 15 -4 25 -5 24 4 21 15 -5z
m-870 3 c0 -5 -9 -19 -21 -32 l-20 -24 17 33 c19 33 24 38 24 23z m-318 -28
c-3 -16 -7 -22 -10 -15 -4 13 4 42 11 42 2 0 2 -12 -1 -27z m1348 17 c0 -5 -2
-10 -4 -10 -3 0 -8 5 -11 10 -3 6 -1 10 4 10 6 0 11 -4 11 -10z m425 -85 c5
-29 4 -37 -3 -30 -6 6 -13 26 -16 45 -3 19 -8 46 -11 60 -4 21 -3 20 9 -5 8
-17 17 -48 21 -70z m-1154 58 c13 -15 12 -15 -11 -3 -34 17 -36 20 -18 20 9 0
22 -7 29 -17z m679 -43 l25 -21 -31 15 c-17 8 -37 22 -45 32 -13 16 -12 16 6
6 11 -6 31 -21 45 -32z m-70 -1 c0 -5 -4 -9 -8 -9 -5 0 -9 7 -9 15 0 8 4 12 9
9 4 -3 8 -9 8 -15z m-640 -34 c0 -5 -5 -3 -10 5 -5 8 -10 20 -10 25 0 6 5 3
10 -5 5 -8 10 -19 10 -25z m-540 -10 c0 -8 -4 -15 -10 -15 -5 0 -7 7 -4 15 4
8 8 15 10 15 2 0 4 -7 4 -15z m-103 -57 c-3 -8 -6 -5 -6 6 -1 11 2 17 5 13 3
-3 4 -12 1 -19z m1150 -15 c-3 -10 -5 -4 -5 12 0 17 2 24 5 18 2 -7 2 -21 0
-30z m-867 17 c0 -5 -2 -10 -4 -10 -3 0 -8 5 -11 10 -3 6 -1 10 4 10 6 0 11
-4 11 -10z m-1434 -9 c-3 -5 1 -14 9 -21 20 -16 19 -36 -2 -44 -16 -7 -33 8
-33 31 0 19 12 43 22 43 5 0 7 -4 4 -9z m1396 -50 c4 11 68 22 68 11 0 -3 -8
-11 -17 -19 -16 -13 -16 -13 4 -4 29 14 46 14 37 -1 -5 -7 -3 -8 7 -2 22 13
43 14 51 1 5 -8 13 -8 30 0 13 6 35 11 49 12 21 0 28 -5 31 -24 4 -21 1 -25
-18 -25 -13 0 -24 -5 -24 -10 0 -7 -7 -7 -21 0 -11 7 -23 9 -26 6 -4 -3 -13 0
-21 7 -11 8 -16 9 -19 1 -5 -14 -86 -9 -91 6 -5 14 -18 12 -36 -6 -15 -14 -16
-14 -16 1 0 9 -5 13 -10 10 -6 -4 -8 -10 -5 -15 3 -5 -4 -8 -15 -7 -13 1 -16
5 -10 11 15 15 12 36 -5 36 -8 0 -15 -5 -15 -11 0 -5 -5 -7 -12 -3 -9 6 -9 9
0 12 7 2 10 8 7 13 -4 5 2 6 11 2 14 -5 16 -3 11 11 -4 10 -3 15 3 11 6 -3 10
0 10 7 0 7 9 0 19 -15 11 -18 20 -24 23 -16z m-222 4 c-13 -14 -26 -23 -28
-20 -4 4 38 44 47 45 3 0 -6 -11 -19 -25z m522 -13 c-7 -5 -10 -16 -6 -25 3
-10 1 -17 -5 -17 -12 0 -15 32 -4 43 3 4 11 7 17 7 6 0 6 -4 -2 -8z m-1652
-53 c0 -11 5 -29 10 -39 6 -11 6 -21 1 -24 -11 -7 -44 72 -35 85 8 14 24 0 24
-22z m457 14 c-3 -10 -8 -31 -12 -47 -5 -26 -7 -27 -19 -11 -14 20 -10 55 8
67 19 13 28 9 23 -9z m944 -77 c-10 -11 -8 -17 6 -25 16 -9 16 -10 2 -11 -21
0 -31 24 -16 39 16 16 22 14 8 -3z m98 -36 c0 -9 -6 -4 -14 10 -19 33 -19 49
0 24 8 -10 14 -26 14 -34z m16 40 c3 -5 1 -10 -4 -10 -6 0 -11 5 -11 10 0 6 2
10 4 10 3 0 8 -4 11 -10z m-160 -11 c11 -17 -1 -21 -15 -4 -8 9 -8 15 -2 15 6
0 14 -5 17 -11z m125 -33 c0 -6 -7 -3 -14 6 -7 10 -17 14 -21 10 -5 -4 -5 -1
-1 6 6 10 11 10 22 1 8 -6 14 -17 14 -23z m-1519 -22 c12 -14 11 -16 -5 -13
-11 2 -21 10 -24 17 -5 17 13 15 29 -4z m119 -49 c0 -8 -4 -15 -10 -15 -5 0
-10 7 -10 15 0 8 5 15 10 15 6 0 10 -7 10 -15z m120 -15 c0 -5 -2 -10 -4 -10
-3 0 -8 5 -11 10 -3 6 -1 10 4 10 6 0 11 -4 11 -10z m1337 -62 c-3 -8 -6 -5
-6 6 -1 11 2 17 5 13 3 -3 4 -12 1 -19z m-1477 -15 c0 -8 8 -13 18 -11 13 2
18 -5 20 -32 l4 -35 -36 37 c-37 38 -49 72 -21 62 8 -4 15 -13 15 -21z m1587
-42 c1 -10 -4 -18 -13 -18 -9 0 -13 6 -9 14 3 8 5 20 5 25 0 17 13 0 17 -21z
m-1537 -112 c0 -22 -4 -38 -9 -35 -11 7 -23 65 -15 77 11 19 24 -3 24 -42z
m1530 37 c0 -3 -4 -8 -10 -11 -5 -3 -10 -1 -10 4 0 6 5 11 10 11 6 0 10 -2 10
-4z m84 -33 c3 -7 -4 -28 -15 -46 -15 -23 -19 -26 -14 -9 6 20 4 22 -19 16
-25 -6 -27 -4 -30 28 -1 7 10 15 24 18 38 9 49 8 54 -7z m386 -28 c0 -5 -5 -3
-10 5 -5 8 -10 20 -10 25 0 6 5 3 10 -5 5 -8 10 -19 10 -25z m-93 -8 c-2 -7 4
-29 15 -49 10 -21 16 -38 13 -38 -9 0 -54 97 -48 104 9 9 25 -4 20 -17z m83
-13 c20 -37 8 -36 -17 2 -11 18 -15 30 -9 28 7 -3 19 -16 26 -30z m-302 1 c-3
-3 -9 2 -12 12 -6 14 -5 15 5 6 7 -7 10 -15 7 -18z m154 0 c7 8 34 -34 41 -65
5 -17 2 -14 -8 8 -9 18 -20 30 -25 27 -6 -4 -6 -13 0 -25 6 -11 15 -29 20 -40
15 -31 12 -31 -16 -3 -15 15 -28 40 -29 57 -1 17 -6 40 -10 51 -6 19 -6 19 8
3 8 -10 16 -15 19 -13z m37 -5 c11 -24 11 -24 -3 -6 -9 11 -16 24 -16 30 0 12
5 7 19 -24z m-172 -2 c-3 -8 -6 -5 -6 6 -1 11 2 17 5 13 3 -3 4 -12 1 -19z
m47 -43 l6 -30 -15 25 c-8 14 -14 34 -14 45 0 16 1 17 8 5 5 -8 11 -28 15 -45z
m232 8 c21 -26 33 -44 26 -39 -7 4 -12 2 -13 -6 0 -7 -5 -2 -10 11 -5 13 -18
36 -30 52 -32 45 -16 34 27 -18z m-183 22 c-3 -9 -8 -14 -10 -11 -3 3 -2 9 2
15 9 16 15 13 8 -4z m228 -17 c11 -21 11 -22 -4 -9 -10 7 -17 17 -17 22 0 15
9 10 21 -13z m-1831 -8 c0 -5 -2 -10 -4 -10 -3 0 -8 5 -11 10 -3 6 -1 10 4 10
6 0 11 -4 11 -10z m-88 -37 c6 -45 3 -50 -17 -33 -23 19 -19 70 6 70 4 0 9
-17 11 -37z m1568 -5 c-1 -18 -1 -35 0 -38 1 -3 4 -30 5 -60 3 -43 2 -50 -6
-31 -5 13 -10 51 -10 85 -1 71 -1 76 7 76 3 0 5 -15 4 -32z m374 -23 c7 -34
-7 -15 -19 25 -5 16 -4 22 3 15 5 -5 12 -23 16 -40z m51 25 c3 -5 1 -10 -4
-10 -6 0 -11 5 -11 10 0 6 2 10 4 10 3 0 8 -4 11 -10z m-498 -32 c-3 -8 -6 -5
-6 6 -1 11 2 17 5 13 3 -3 4 -12 1 -19z m-1310 -10 c-3 -8 -6 -5 -6 6 -1 11 2
17 5 13 3 -3 4 -12 1 -19z m1532 -62 c2 -45 -6 -27 -12 29 -4 34 -3 42 3 25 4
-14 8 -38 9 -54z m41 29 c0 -5 -5 -3 -10 5 -5 8 -10 20 -10 25 0 6 5 3 10 -5
5 -8 10 -19 10 -25z m-1325 15 c3 -5 1 -10 -4 -10 -6 0 -11 5 -11 10 0 6 2 10
4 10 3 0 8 -4 11 -10z m-28 -22 c-3 -8 -6 -5 -6 6 -1 11 2 17 5 13 3 -3 4 -12
1 -19z m860 -18 c0 -16 -2 -28 -5 -26 -2 3 -16 -6 -30 -19 -14 -13 -28 -22
-31 -19 -3 3 7 15 21 27 14 12 29 32 33 45 9 30 12 28 12 -8z m548 0 c10 -11
16 -20 13 -20 -3 0 -13 9 -23 20 -10 11 -16 20 -13 20 3 0 13 -9 23 -20z
m-1745 0 c0 -5 -2 -10 -4 -10 -3 0 -8 5 -11 10 -3 6 -1 10 4 10 6 0 11 -4 11
-10z m100 0 c0 -5 -5 -10 -11 -10 -5 0 -7 5 -4 10 3 6 8 10 11 10 2 0 4 -4 4
-10z m1197 -32 c-3 -7 -5 -2 -5 12 0 14 2 19 5 13 2 -7 2 -19 0 -25z m-1157
-32 c-12 -13 -30 3 -30 26 0 21 0 21 19 2 10 -10 15 -23 11 -28z m230 -46 c0
-16 -36 -39 -49 -31 -21 13 3 51 29 44 11 -3 20 -9 20 -13z m-275 0 c-3 -5
-10 -10 -16 -10 -5 0 -9 5 -9 10 0 6 7 10 16 10 8 0 12 -4 9 -10z m88 -36 c8
-8 -3 -34 -14 -34 -5 0 -9 9 -9 20 0 19 11 26 23 14z m1104 -66 c-3 -8 -6 -5
-6 6 -1 11 2 17 5 13 3 -3 4 -12 1 -19z m-957 2 c0 -5 -4 -10 -10 -10 -5 0
-10 5 -10 10 0 6 5 10 10 10 6 0 10 -4 10 -10z m-100 -55 c-7 -9 -15 -13 -17
-11 -6 6 20 36 26 30 2 -2 -2 -10 -9 -19z m1750 -16 c6 -10 7 -19 2 -19 -5 0
-14 12 -20 26 -14 29 2 24 18 -7z m-1650 11 c0 -6 -8 -14 -17 -17 -10 -4 -21
-11 -25 -17 -4 -6 -10 -8 -13 -4 -9 8 26 48 42 48 7 0 13 -5 13 -10z m161 -13
c-10 -9 -11 -8 -5 6 3 10 9 15 12 12 3 -3 0 -11 -7 -18z m1118 -62 l0 -20 -9
20 c-5 11 -9 27 -9 35 -1 13 0 13 9 0 5 -8 9 -24 9 -35z m294 38 c-7 -2 -21
-2 -30 0 -10 3 -4 5 12 5 17 0 24 -2 18 -5z m-1507 -30 c-10 -10 -19 5 -10 18
6 11 8 11 12 0 2 -7 1 -15 -2 -18z m1548 -88 c20 -31 21 -41 1 -21 -17 17 -45
90 -44 115 0 9 6 -3 14 -27 7 -23 20 -54 29 -67z m-312 49 c-23 -20 -40 -39
-37 -44 3 -5 1 -11 -4 -14 -5 -4 -12 -2 -16 3 -6 11 73 91 89 91 5 0 -9 -16
-32 -36z m172 -6 c-10 -12 -29 -32 -40 -44 l-21 -22 0 25 c0 14 2 20 6 14 4
-6 18 1 35 19 32 35 48 41 20 8z m-284 -13 c7 -9 8 -15 2 -15 -5 0 -12 7 -16
15 -3 8 -4 15 -2 15 2 0 9 -7 16 -15z m163 -43 c-9 -15 -33 -56 -51 -92 -19
-36 -39 -69 -44 -75 -13 -12 -10 -5 17 47 10 21 15 41 10 45 -4 5 -10 2 -12
-4 -3 -7 -9 -13 -15 -13 -6 0 -3 9 7 20 14 16 20 17 27 8 6 -10 8 -9 8 2 0 8
9 26 19 39 10 14 17 32 14 40 -4 14 -4 14 6 1 9 -13 11 -12 11 3 0 10 5 15 11
12 6 -5 4 -16 -8 -33z m-357 -9 c-10 -10 -19 5 -10 18 6 11 8 11 12 0 2 -7 1
-15 -2 -18z m226 -7 c8 5 8 1 -2 -10 -13 -17 -14 -17 -21 1 -4 10 -8 25 -8 33
0 8 4 5 10 -8 6 -15 13 -21 21 -16z m-207 -53 c-8 -70 -19 -95 -28 -64 -3 11
-2 23 3 26 4 3 11 25 14 50 10 66 20 55 11 -12z m342 0 c-3 -10 -5 -2 -5 17 0
19 2 27 5 18 2 -10 2 -26 0 -35z m100 -10 c-3 -10 -5 -2 -5 17 0 19 2 27 5 18
2 -10 2 -26 0 -35z m-1047 7 c0 -5 -5 -10 -11 -10 -5 0 -7 5 -4 10 3 6 8 10
11 10 2 0 4 -4 4 -10z m801 -4 c-11 -13 -6 -66 6 -66 3 0 12 8 20 18 12 15 12
13 0 -13 -8 -16 -12 -36 -9 -44 3 -8 0 -11 -7 -7 -6 4 -11 0 -11 -9 0 -9 -5
-13 -10 -10 -6 4 -7 13 -1 24 6 10 7 28 4 40 -5 20 -6 20 -19 4 -11 -15 -12
-12 -2 22 5 22 15 43 22 47 17 12 20 9 7 -6z m-74 -28 c-3 -7 -5 -2 -5 12 0
14 2 19 5 13 2 -7 2 -19 0 -25z m323 -58 c0 -45 -13 -80 -25 -68 -4 3 -1 16 5
28 10 19 8 27 -11 54 -22 30 -22 31 -1 12 20 -17 22 -17 22 -2 0 9 -7 29 -16
44 l-16 27 21 -25 c14 -17 21 -39 21 -70z m-119 37 c-10 -9 -11 -8 -5 6 3 10
9 15 12 12 3 -3 0 -11 -7 -18z m-1051 -1 c0 -3 -4 -8 -10 -11 -5 -3 -10 -1
-10 4 0 6 5 11 10 11 6 0 10 -2 10 -4z m237 -28 c-3 -8 -6 -5 -6 6 -1 11 2 17
5 13 3 -3 4 -12 1 -19z m573 -13 c6 -4 19 -1 28 6 15 11 15 10 -1 -6 -14 -16
-21 -18 -37 -7 -11 6 -26 12 -34 12 -8 0 -17 4 -21 9 -6 10 44 -1 65 -14z
m-365 5 c3 -5 1 -10 -4 -10 -6 0 -11 5 -11 10 0 6 2 10 4 10 3 0 8 -4 11 -10z
m35 -34 c8 -11 10 -17 3 -13 -6 4 -13 4 -16 0 -2 -5 -2 -2 -1 5 5 19 -8 14
-31 -11 -11 -13 -16 -16 -10 -7 12 20 38 51 39 48 1 -2 8 -12 16 -22z m-210
-53 c-11 -17 -11 -17 -6 0 3 10 7 28 7 40 2 22 2 22 6 0 2 -12 -1 -30 -7 -40z
m279 33 c-10 -10 -20 -11 -34 -5 -19 9 -19 9 2 5 13 -2 24 2 28 12 3 8 8 12
12 8 4 -3 0 -13 -8 -20z m100 -2 c-8 -10 -20 -29 -26 -43 l-13 -26 6 25 c4 14
13 33 22 43 19 22 29 23 11 1z m146 -53 c4 -15 3 -21 -3 -17 -5 3 -12 16 -15
28 -2 13 -8 32 -11 43 -5 12 -2 10 7 -5 8 -14 18 -36 22 -49z m152 47 c-3 -8
-6 -5 -6 6 -1 11 2 17 5 13 3 -3 4 -12 1 -19z m173 -57 c-29 -42 -34 -39 -8 4
11 20 23 34 25 31 3 -3 -5 -19 -17 -35z m-898 -50 c-9 -16 -19 -28 -21 -25 -6
6 21 54 30 54 5 0 0 -13 -9 -29z m325 -28 c-3 -10 -5 -2 -5 17 0 19 2 27 5 18
2 -10 2 -26 0 -35z m183 2 c13 -14 21 -25 18 -25 -2 0 -15 11 -28 25 -13 14
-21 25 -18 25 2 0 15 -11 28 -25z m210 -7 c0 -6 -6 -5 -15 2 -8 7 -15 14 -15
16 0 2 7 1 15 -2 8 -4 15 -11 15 -16z m-540 -21 c0 -2 -9 -12 -20 -22 -24 -21
-27 -14 -4 9 15 15 24 20 24 13z m157 -19 c-3 -8 -6 -5 -6 6 -1 11 2 17 5 13
3 -3 4 -12 1 -19z m421 -3 c-3 -3 -9 2 -12 12 -6 14 -5 15 5 6 7 -7 10 -15 7
-18z"/>
<path d="M6760 7020 c0 -5 5 -10 10 -10 6 0 10 5 10 10 0 6 -4 10 -10 10 -5 0
-10 -4 -10 -10z"/>
<path d="M6756 6971 c-4 -5 -2 -12 3 -15 5 -4 12 -2 15 3 4 5 2 12 -3 15 -5 4
-12 2 -15 -3z"/>
<path d="M6620 6821 c0 -5 5 -13 10 -16 6 -3 10 -2 10 4 0 5 -4 13 -10 16 -5
3 -10 2 -10 -4z"/>
<path d="M6770 6814 c0 -8 5 -12 10 -9 6 3 10 10 10 16 0 5 -4 9 -10 9 -5 0
-10 -7 -10 -16z"/>
<path d="M6654 6695 c0 -19 3 -35 8 -35 5 0 6 5 3 10 -3 6 -1 10 4 10 15 0 14
12 -1 33 -11 15 -13 13 -14 -18z"/>
<path d="M6585 6690 c3 -5 11 -10 16 -10 6 0 7 5 4 10 -3 6 -11 10 -16 10 -6
0 -7 -4 -4 -10z"/>
<path d="M6620 6690 c0 -5 5 -10 11 -10 5 0 7 5 4 10 -3 6 -8 10 -11 10 -2 0
-4 -4 -4 -10z"/>
<path d="M6639 6586 c7 -8 21 -14 31 -13 26 2 5 27 -22 27 -17 0 -18 -3 -9
-14z"/>
<path d="M6320 6560 c0 -5 5 -10 11 -10 5 0 7 5 4 10 -3 6 -8 10 -11 10 -2 0
-4 -4 -4 -10z"/>
<path d="M6225 6550 c3 -5 8 -10 11 -10 2 0 4 5 4 10 0 6 -5 10 -11 10 -5 0
-7 -4 -4 -10z"/>
<path d="M6362 6551 c-10 -6 -10 -10 3 -21 8 -7 18 -10 22 -6 3 3 1 6 -5 6 -6
0 -9 7 -6 15 7 17 4 18 -14 6z"/>
<path d="M6518 6538 c-10 -10 -16 -18 -14 -18 2 0 11 -3 20 -6 10 -4 16 -1 16
10 0 10 6 13 15 10 21 -8 19 3 -2 14 -13 6 -23 3 -35 -10z"/>
<path d="M6176 6532 c-3 -5 5 -7 18 -5 17 4 26 0 30 -14 4 -16 5 -15 3 2 -2
21 -40 34 -51 17z"/>
<path d="M6055 6500 c-3 -6 1 -7 9 -4 12 5 16 -1 16 -20 0 -24 2 -25 20 -16
21 11 28 40 9 40 -6 0 -9 -7 -5 -15 3 -8 1 -15 -4 -15 -6 0 -10 9 -10 20 0 21
-24 28 -35 10z"/>
<path d="M6150 6498 c0 -11 8 -18 20 -18 11 0 20 5 20 11 0 5 -5 7 -11 3 -6
-3 -15 0 -20 7 -7 11 -9 10 -9 -3z"/>
<path d="M6273 6487 c2 -20 19 -25 26 -6 2 6 -1 9 -7 5 -6 -3 -13 0 -16 6 -3
7 -5 5 -3 -5z"/>
<path d="M6330 6471 c6 -12 17 -21 25 -21 8 0 18 0 22 -1 4 0 9 5 12 12 2 7
-1 9 -8 5 -7 -4 -23 0 -37 9 -25 16 -25 16 -14 -4z"/>
<path d="M6056 6471 c-4 -7 -5 -15 -2 -18 9 -9 19 4 14 18 -4 11 -6 11 -12 0z"/>
<path d="M6195 6460 c3 -5 8 -10 11 -10 2 0 4 5 4 10 0 6 -5 10 -11 10 -5 0
-7 -4 -4 -10z"/>
<path d="M5869 6451 c7 -5 10 -14 7 -20 -4 -6 -2 -11 3 -11 6 0 11 9 11 20 0
12 -7 20 -17 20 -14 0 -15 -2 -4 -9z"/>
<path d="M6780 6441 c0 -6 5 -13 10 -16 6 -3 10 1 10 9 0 9 -4 16 -10 16 -5 0
-10 -4 -10 -9z"/>
<path d="M6029 6423 c-13 -15 -12 -15 9 -4 23 12 28 21 13 21 -5 0 -15 -7 -22
-17z"/>
<path d="M6170 6429 c0 -5 5 -7 10 -4 6 3 10 8 10 11 0 2 -4 4 -10 4 -5 0 -10
-5 -10 -11z"/>
<path d="M6355 6410 c-3 -5 -1 -10 4 -10 6 0 11 5 11 10 0 6 -2 10 -4 10 -3 0
-8 -4 -11 -10z"/>
<path d="M6570 6359 c8 -9 47 -22 85 -29 39 -7 77 -15 85 -18 11 -3 12 -2 5 6
-6 6 -22 13 -35 16 -14 2 -25 5 -25 6 0 3 -40 10 -70 12 -16 1 -37 6 -45 12
-13 9 -13 8 0 -5z"/>
<path d="M5790 6345 c0 -25 15 -33 34 -19 11 7 16 17 12 21 -4 4 -11 1 -17 -7
-8 -13 -10 -13 -19 0 -5 8 -10 11 -10 5z"/>
<path d="M5760 6321 c0 -5 7 -11 14 -14 10 -4 13 -1 9 9 -6 15 -23 19 -23 5z"/>
<path d="M6767 6299 c7 -7 15 -10 18 -7 3 3 -2 9 -12 12 -14 6 -15 5 -6 -5z"/>
<path d="M5585 6280 c-3 -5 -1 -10 4 -10 6 0 11 5 11 10 0 6 -2 10 -4 10 -3 0
-8 -4 -11 -10z"/>
<path d="M6750 6282 c0 -6 9 -12 20 -15 11 -3 20 -3 20 -1 0 2 -9 8 -20 14
-11 6 -20 7 -20 2z"/>
<path d="M5547 6264 c-8 -14 8 -37 22 -33 8 3 8 10 -2 23 -8 11 -17 15 -20 10z"/>
<path d="M4920 6199 c27 -23 29 -27 10 -18 -14 7 -28 17 -32 22 -8 13 -70 19
-62 6 7 -12 -23 -11 -47 1 -24 13 -25 2 -1 -16 15 -11 12 -12 -18 -9 -19 3
-46 7 -60 10 -22 5 -22 4 -5 -4 18 -9 17 -10 -8 -10 -15 -1 -30 -8 -34 -17 -3
-8 -11 -13 -19 -10 -8 3 -11 -2 -9 -15 2 -10 0 -19 -6 -19 -5 0 -9 4 -9 10 0
5 -7 7 -16 3 -13 -5 -13 -8 -2 -15 9 -6 6 -8 -12 -7 -63 4 -72 -4 -20 -15 l55
-13 -65 0 c-39 0 -79 -7 -100 -17 -19 -9 -27 -14 -17 -11 56 15 70 17 64 8 -3
-5 -32 -16 -63 -23 -42 -10 -52 -16 -38 -21 17 -7 17 -8 2 -8 -10 -1 -18 -5
-18 -10 0 -6 -27 -9 -60 -8 -33 1 -56 1 -50 -1 5 -2 7 -8 4 -14 -3 -5 5 -12
17 -16 20 -6 18 -8 -16 -12 -27 -4 -39 -10 -37 -19 2 -8 -3 -18 -10 -22 -9 -6
-5 -9 12 -10 14 0 45 -3 70 -5 32 -3 41 -2 30 6 -12 8 -10 10 10 11 33 2 49 1
85 -6 17 -3 43 -6 58 -5 16 0 26 -4 22 -9 -3 -6 -12 -8 -20 -4 -8 3 -15 1 -15
-5 0 -5 9 -12 20 -15 11 -3 18 -1 14 4 -3 5 4 9 15 9 10 0 28 3 38 6 13 4 15
3 4 -4 -11 -8 -11 -10 0 -15 8 -3 1 -6 -16 -7 -16 -1 -24 -4 -17 -7 25 -10 11
-22 -35 -28 -115 -16 -199 -54 -266 -120 -20 -21 -101 -184 -94 -191 12 -13
40 15 64 63 36 75 64 107 126 142 108 61 228 89 241 55 9 -24 8 -26 -14 -19
-12 4 -20 2 -20 -5 0 -6 -5 -8 -11 -5 -5 4 -19 -1 -31 -12 -11 -10 -22 -17
-24 -16 -2 1 -25 -7 -51 -19 -27 -12 -52 -20 -56 -20 -4 1 -10 -5 -13 -13 -3
-8 -9 -13 -13 -10 -9 5 -49 -32 -128 -117 -58 -61 -61 -68 -36 -68 14 0 13 -4
-5 -23 -12 -13 -20 -26 -16 -29 9 -10 69 20 66 32 -1 6 2 9 7 6 5 -4 23 8 40
26 23 25 33 30 42 21 7 -7 18 -9 28 -4 9 5 41 11 71 14 36 4 48 3 35 -3 -18
-8 -17 -9 8 -9 16 -1 26 -5 22 -11 -3 -5 -2 -10 4 -10 5 0 14 6 18 14 4 7 20
15 35 18 21 4 25 2 21 -11 -4 -9 -11 -22 -16 -29 -7 -9 -6 -11 7 -6 9 3 16 12
16 20 0 13 66 32 76 21 3 -2 -2 -12 -11 -21 -10 -9 -15 -23 -12 -30 3 -8 -1
-17 -9 -20 -18 -7 -18 -32 1 -40 9 -3 15 0 15 8 0 8 8 13 18 11 9 -2 19 -4 21
-4 11 -2 -40 -41 -54 -41 -8 0 -15 -9 -15 -19 0 -11 -6 -21 -12 -24 -15 -5 23
-47 42 -47 6 0 8 -4 5 -10 -9 -15 12 -12 105 11 45 11 89 26 97 34 7 8 20 12
28 9 8 -4 15 -1 15 5 0 6 9 11 20 11 11 0 20 -4 20 -8 0 -4 9 -8 19 -8 15 0
17 3 9 13 -8 10 -5 13 11 13 11 0 21 -4 21 -8 0 -4 9 -8 20 -8 25 0 26 11 3
26 -14 9 -11 9 17 4 30 -6 33 -5 22 8 -6 8 -9 18 -5 22 12 12 11 35 -2 46 -8
7 -10 21 -6 43 5 25 12 33 34 35 32 4 37 34 10 66 -10 12 3 1 29 -22 48 -46
58 -46 53 2 -5 43 -25 76 -67 115 -21 18 -36 37 -33 41 3 5 -8 17 -24 26 -17
10 -28 21 -25 25 2 4 -5 10 -16 14 -11 4 -18 10 -15 15 3 5 -4 11 -15 15 -18
6 -24 17 -21 38 0 4 -4 7 -10 7 -5 0 -7 4 -4 10 3 5 0 20 -7 32 -18 34 -20 57
-2 34 8 -11 14 -15 14 -8 0 7 7 9 18 5 15 -6 15 -5 3 10 -12 15 -11 16 18 6
18 -6 35 -9 38 -5 3 3 18 -3 32 -12 29 -20 67 -26 77 -11 3 5 1 8 -4 7 -6 -2
-9 2 -8 7 0 6 10 9 21 7 20 -3 20 -3 0 13 -16 12 -17 14 -2 9 12 -4 17 -1 17
11 0 9 4 13 10 10 5 -3 2 9 -8 27 -9 18 -23 37 -30 41 -7 5 -10 19 -8 34 3 14
2 23 -1 19 -4 -3 -14 1 -24 10 -9 8 -24 16 -32 18 -8 1 -21 7 -28 13 -8 6 -16
11 -19 12 -16 0 -39 14 -35 21 5 8 -58 50 -73 50 -4 0 9 -14 28 -31z m-200
-49 c19 -11 32 -19 29 -20 -11 0 -79 30 -79 35 0 9 14 5 50 -15z m225 10 c19
-8 19 -9 -2 -9 -12 -1 -25 4 -28 9 -7 12 2 12 30 0z m98 -35 c4 3 5 2 2 -2 -3
-3 0 -12 6 -20 6 -7 8 -13 3 -12 -5 0 -20 14 -34 32 -18 25 -19 28 -4 14 11
-9 24 -15 27 -12z m-338 -15 c13 -6 15 -9 5 -9 -8 0 -22 4 -30 9 -18 12 -2 12
25 0z m306 -7 c13 -17 13 -17 -6 -3 -11 8 -22 16 -24 17 -2 2 0 3 6 3 6 0 17
-8 24 -17z m80 -10 c13 -16 12 -17 -3 -4 -10 7 -18 15 -18 17 0 8 8 3 21 -13z
m-414 1 c-3 -3 -12 -4 -19 -1 -8 3 -5 6 6 6 11 1 17 -2 13 -5z m328 -24 c3 -6
-1 -7 -9 -4 -18 7 -21 14 -7 14 6 0 13 -4 16 -10z m-475 -24 c0 -2 -7 -7 -16
-10 -8 -3 -12 -2 -9 4 6 10 25 14 25 6z m574 -22 c5 -14 4 -15 -9 -4 -17 14
-19 20 -6 20 5 0 12 -7 15 -16z m-111 -55 c-10 -3 -25 -4 -33 0 -11 4 -9 7 8
9 14 2 20 8 15 15 -4 7 1 5 11 -3 17 -13 17 -14 -1 -21z m124 15 c-3 -3 -12
-4 -19 -1 -8 3 -5 6 6 6 11 1 17 -2 13 -5z m-688 -40 c10 -9 -45 -3 -59 6 -11
7 -5 8 20 4 19 -4 37 -8 39 -10z m641 -4 c6 -11 8 -20 6 -20 -3 0 -10 9 -16
20 -6 11 -8 20 -6 20 3 0 10 -9 16 -20z m-770 -15 c0 -2 -9 -3 -19 -2 -11 0
-18 5 -15 9 4 6 34 0 34 -7z m245 5 c-3 -5 -16 -10 -28 -10 -18 0 -19 2 -7 10
20 13 43 13 35 0z m-182 -7 c-7 -2 -21 -2 -30 0 -10 3 -4 5 12 5 17 0 24 -2
18 -5z m242 -13 c3 -5 1 -10 -4 -10 -6 0 -11 5 -11 10 0 6 2 10 4 10 3 0 8 -4
11 -10z m20 -20 c-3 -5 -12 -10 -18 -10 -7 0 -6 4 3 10 19 12 23 12 15 0z
m408 -463 c-2 -4 -3 -12 -3 -18 0 -8 -5 -8 -15 1 -20 17 -19 29 3 26 9 -2 16
-6 15 -9z"/>
<path d="M4970 6226 c0 -2 8 -10 18 -17 15 -13 16 -12 3 4 -13 16 -21 21 -21
13z"/>
<path d="M5695 6220 c-3 -5 -2 -10 4 -10 5 0 13 5 16 10 3 6 2 10 -4 10 -5 0
-13 -4 -16 -10z"/>
<path d="M4415 6160 c-27 -7 -28 -8 -5 -8 14 0 34 3 45 8 25 11 2 11 -40 0z"/>
<path d="M5106 6155 c4 -8 11 -15 16 -15 6 0 5 6 -2 15 -7 8 -14 15 -16 15 -2
0 -1 -7 2 -15z"/>
<path d="M5570 6163 c0 -14 19 -38 25 -32 8 8 -5 39 -16 39 -5 0 -9 -3 -9 -7z"/>
<path d="M5157 6103 c-4 -3 -7 -15 -7 -25 0 -10 -5 -18 -11 -18 -8 0 -8 -5 1
-15 7 -8 10 -15 6 -15 -3 0 3 -9 14 -20 16 -16 18 -24 10 -41 -10 -18 -10 -19
9 -7 12 7 21 18 21 25 0 7 5 13 11 13 8 0 7 6 -2 17 -11 13 -11 17 -1 20 6 3
12 9 12 14 0 6 -4 8 -9 5 -5 -4 -12 0 -15 6 -3 7 -5 -4 -4 -24 2 -20 -1 -40
-5 -44 -4 -4 -7 3 -7 15 0 15 -4 20 -12 15 -10 -6 -10 -4 0 7 14 16 16 33 2
24 -5 -3 -10 -2 -10 4 0 5 9 13 21 16 16 5 18 10 8 21 -13 15 -22 18 -32 7z"/>
<path d="M4325 6050 c-4 -7 3 -8 22 -4 38 9 42 14 10 14 -14 0 -29 -5 -32 -10z"/>
<path d="M5498 6033 c7 -3 16 -2 19 1 4 3 -2 6 -13 5 -11 0 -14 -3 -6 -6z"/>
<path d="M5215 5980 c-3 -5 -1 -10 4 -10 6 0 11 5 11 10 0 6 -2 10 -4 10 -3 0
-8 -4 -11 -10z"/>
<path d="M4193 5902 c-13 -2 -23 -8 -23 -13 0 -9 37 -3 49 7 8 7 -4 10 -26 6z"/>
<path d="M4107 5876 c-4 -10 -1 -13 9 -9 15 6 19 23 5 23 -5 0 -11 -7 -14 -14z"/>
<path d="M4383 5883 c9 -2 23 -2 30 0 6 3 -1 5 -18 5 -16 0 -22 -2 -12 -5z"/>
<path d="M5101 5874 c-11 -13 -11 -18 -1 -24 20 -12 38 -1 33 21 -6 23 -13 23
-32 3z"/>
<path d="M4280 5871 c8 -5 40 -11 70 -15 34 -3 46 -2 30 3 -40 13 -117 22
-100 12z"/>
<path d="M4248 5853 c7 -3 16 -2 19 1 4 3 -2 6 -13 5 -11 0 -14 -3 -6 -6z"/>
<path d="M5620 5804 c0 -8 5 -12 10 -9 6 4 8 11 5 16 -9 14 -15 11 -15 -7z"/>
<path d="M5181 5494 c0 -11 3 -14 6 -6 3 7 2 16 -1 19 -3 4 -6 -2 -5 -13z"/>
<path d="M4597 5485 c-4 -8 -2 -17 3 -20 6 -4 10 0 10 9 0 8 6 17 13 19 7 4 6
6 -4 6 -9 1 -19 -6 -22 -14z"/>
<path d="M5080 5400 c0 -5 5 -10 10 -10 6 0 10 5 10 10 0 6 -4 10 -10 10 -5 0
-10 -4 -10 -10z"/>
<path d="M5730 5307 c0 -9 4 -18 9 -21 5 -4 8 1 7 9 -3 21 -16 31 -16 12z"/>
<path d="M5975 5169 c-10 -15 3 -25 16 -12 7 7 7 13 1 17 -6 3 -14 1 -17 -5z"/>
<path d="M6930 5161 c0 -14 5 -19 15 -14 17 6 15 25 -3 31 -7 2 -12 -5 -12
-17z"/>
<path d="M5710 5136 c0 -2 7 -7 16 -10 8 -3 12 -2 9 4 -6 10 -25 14 -25 6z"/>
<path d="M6360 5131 c0 -12 39 -21 45 -11 3 4 -2 11 -11 14 -22 8 -34 7 -34
-3z"/>
<path d="M7040 5125 c7 -9 15 -13 17 -11 7 7 -7 26 -19 26 -6 0 -6 -6 2 -15z"/>
<path d="M5871 5104 c0 -11 3 -14 6 -6 3 7 2 16 -1 19 -3 4 -6 -2 -5 -13z"/>
<path d="M5918 5098 c-2 -13 5 -32 14 -43 10 -11 24 -29 33 -40 l17 -20 -7 20
c-4 11 -7 25 -8 30 -1 6 -10 13 -20 17 -13 5 -16 14 -12 27 3 11 1 22 -4 25
-5 4 -11 -4 -13 -16z"/>
<path d="M5716 5071 c-3 -5 0 -11 8 -14 15 -6 26 1 26 15 0 11 -27 10 -34 -1z"/>
<path d="M6069 5063 c-12 -16 -12 -17 2 -6 12 10 18 10 29 0 12 -10 12 -9 1 6
-7 9 -15 17 -16 17 -1 0 -9 -8 -16 -17z"/>
<path d="M6020 5050 c-9 -6 -10 -10 -3 -10 6 0 15 5 18 10 8 12 4 12 -15 0z"/>
<path d="M6115 5012 c-11 -8 -16 -42 -6 -42 3 0 13 5 21 10 12 7 12 10 1 10
-7 0 -11 6 -7 15 6 17 5 18 -9 7z"/>
<path d="M6950 4995 c0 -8 5 -15 10 -15 6 0 10 7 10 15 0 8 -4 15 -10 15 -5 0
-10 -7 -10 -15z"/>
<path d="M6016 4992 c-9 -14 1 -52 14 -52 5 0 12 5 16 12 4 7 3 8 -4 4 -16
-10 -15 7 1 23 8 9 8 12 0 7 -6 -3 -13 -1 -15 6 -3 9 -6 9 -12 0z"/>
<path d="M5983 4983 c-17 -6 -17 -23 0 -23 8 0 14 7 14 15 0 8 -1 15 -1 14 -1
0 -7 -3 -13 -6z"/>
<path d="M6074 4916 c-8 -20 -1 -49 12 -53 13 -4 25 32 17 53 -7 18 -22 18
-29 0z"/>
<path d="M5906 4905 c4 -8 12 -15 20 -15 19 0 18 16 -2 24 -22 9 -24 8 -18 -9z"/>
<path d="M6045 4910 c3 -5 8 -10 11 -10 2 0 4 5 4 10 0 6 -5 10 -11 10 -5 0
-7 -4 -4 -10z"/>
<path d="M6188 4893 c-20 -5 -13 -33 9 -33 8 0 12 -4 9 -9 -3 -5 -16 -7 -29
-5 -12 2 -15 1 -7 -2 8 -4 18 -12 23 -18 5 -7 12 -5 22 8 12 16 12 20 -1 33
-8 8 -12 19 -9 24 4 5 5 8 3 8 -2 -1 -11 -3 -20 -6z"/>
<path d="M3489 4868 c-17 -31 -21 -74 -6 -59 6 6 12 17 13 25 1 7 5 23 9 35 8
28 -1 27 -16 -1z"/>
<path d="M6249 4849 c-7 -4 -4 -9 6 -13 26 -10 45 -7 45 7 0 13 -33 17 -51 6z"/>
<path d="M6128 4833 c7 -3 16 -2 19 1 4 3 -2 6 -13 5 -11 0 -14 -3 -6 -6z"/>
<path d="M6350 4802 c0 -5 7 -9 15 -9 8 0 15 4 15 9 0 4 -7 8 -15 8 -8 0 -15
-4 -15 -8z"/>
<path d="M6392 4783 c-15 -6 -6 -23 14 -23 8 0 14 7 14 15 0 15 -6 17 -28 8z"/>
<path d="M6350 4759 c0 -5 5 -7 10 -4 6 3 10 8 10 11 0 2 -4 4 -10 4 -5 0 -10
-5 -10 -11z"/>
<path d="M6305 4750 c-3 -5 -1 -10 4 -10 6 0 11 5 11 10 0 6 -2 10 -4 10 -3 0
-8 -4 -11 -10z"/>
<path d="M6410 4739 c0 -5 5 -7 10 -4 6 3 10 8 10 11 0 2 -4 4 -10 4 -5 0 -10
-5 -10 -11z"/>
<path d="M7020 4740 c0 -5 5 -10 11 -10 5 0 7 5 4 10 -3 6 -8 10 -11 10 -2 0
-4 -4 -4 -10z"/>
<path d="M6681 4730 c0 -8 4 -24 9 -35 7 -16 9 -17 9 -3 1 9 7 19 14 21 7 4 6
6 -5 6 -9 1 -19 7 -21 14 -4 8 -5 7 -6 -3z"/>
<path d="M6610 4715 c-7 -9 -10 -18 -6 -22 3 -3 6 0 6 8 1 10 5 8 15 -5 18
-24 26 -18 18 12 -6 26 -16 28 -33 7z"/>
<path d="M3722 4682 c-7 -22 -3 -49 18 -122 15 -52 31 -104 36 -114 7 -19 8
-19 15 1 12 32 -8 170 -33 236 -13 34 -23 34 -36 -1z"/>
<path d="M6453 4685 c-9 -25 2 -27 22 -5 17 18 17 20 1 20 -9 0 -19 -7 -23
-15z"/>
<path d="M6756 4675 c-21 -22 -20 -23 9 -18 26 6 57 33 36 33 -6 0 -11 -6 -11
-12 0 -10 -2 -10 -9 0 -6 11 -11 10 -25 -3z"/>
<path d="M6586 4654 c-24 -17 -14 -31 14 -18 11 5 16 14 12 21 -5 8 -12 8 -26
-3z"/>
<path d="M6680 4655 c0 -8 4 -15 10 -15 5 0 7 7 4 15 -4 8 -8 15 -10 15 -2 0
-4 -7 -4 -15z"/>
<path d="M6640 4631 c0 -5 5 -13 10 -16 6 -3 10 -2 10 4 0 5 -4 13 -10 16 -5
3 -10 2 -10 -4z"/>
<path d="M6720 4605 c0 -22 15 -25 27 -6 9 14 7 17 -8 18 -11 1 -19 -4 -19
-12z"/>
<path d="M6572 4594 c10 -10 20 -16 22 -13 3 3 -5 11 -17 18 -21 13 -21 12 -5
-5z"/>
<path d="M6685 4600 c-3 -5 -2 -10 4 -10 5 0 13 5 16 10 3 6 2 10 -4 10 -5 0
-13 -4 -16 -10z"/>
<path d="M6720 4560 c0 -5 5 -10 10 -10 6 0 10 5 10 10 0 6 -4 10 -10 10 -5 0
-10 -4 -10 -10z"/>
<path d="M3792 4400 c0 -14 2 -19 5 -12 2 6 2 18 0 25 -3 6 -5 1 -5 -13z"/>
<path d="M5234 4367 c-83 -45 -154 -108 -154 -137 0 -15 50 -51 80 -57 35 -8
81 -11 76 -5 -3 3 -1 11 5 19 9 10 15 11 26 2 11 -9 12 -9 7 4 -4 12 1 20 17
26 13 5 32 17 41 27 9 11 26 29 38 42 19 20 48 23 35 2 -3 -4 4 -10 15 -13 18
-5 18 -2 -6 26 -37 45 -94 87 -118 87 -12 -1 -39 -11 -62 -23z"/>
<path d="M5335 4066 c-20 -31 -28 -73 -15 -81 6 -4 10 5 10 20 0 14 7 39 15
55 19 36 12 40 -10 6z"/>
<path d="M5086 4072 c-3 -5 1 -9 9 -9 8 0 15 4 15 9 0 4 -4 8 -9 8 -6 0 -12
-4 -15 -8z"/>
<path d="M5352 4024 c-7 -14 -8 -23 -3 -20 5 4 12 0 15 -6 2 -7 4 -2 3 12 -1
15 3 24 11 23 6 -2 12 2 12 7 0 20 -27 9 -38 -16z"/>
<path d="M5078 3979 c-3 -16 -1 -34 4 -41 5 -8 8 0 8 21 0 25 4 32 15 28 8 -4
17 -2 20 2 2 5 -6 11 -19 13 -20 4 -25 0 -28 -23z"/>
<path d="M5059 3978 c-1 -2 -3 -12 -4 -23 -2 -11 -6 -29 -10 -40 -6 -14 -5
-17 3 -10 11 10 26 75 17 75 -3 0 -6 -1 -6 -2z"/>
<path d="M5342 3930 c0 -14 2 -19 5 -12 2 6 2 18 0 25 -3 6 -5 1 -5 -13z"/>
<path d="M4999 3877 c-7 -16 -6 -32 6 -61 18 -44 29 -44 16 0 -4 16 -7 41 -7
57 2 33 -1 34 -15 4z"/>
<path d="M4936 3794 c-9 -35 -4 -39 11 -8 6 13 8 26 3 29 -4 3 -11 -7 -14 -21z"/>
<path d="M4571 3784 c-13 -15 -17 -24 -10 -22 12 4 46 48 37 48 -2 0 -15 -12
-27 -26z"/>
<path d="M4957 3763 c-4 -3 -7 -13 -7 -22 1 -13 3 -13 11 2 11 19 8 33 -4 20z"/>
<path d="M4045 3751 c-3 -5 -1 -12 5 -16 5 -3 10 1 10 9 0 18 -6 21 -15 7z"/>
<path d="M4600 3740 c-26 -20 -22 -37 6 -26 9 4 14 9 11 13 -4 3 -2 12 4 20
16 18 9 16 -21 -7z"/>
<path d="M4904 3738 c-4 -13 -2 -24 5 -26 6 -2 11 -13 12 -25 0 -21 1 -21 8
-3 8 22 3 64 -9 71 -5 3 -12 -5 -16 -17z"/>
<path d="M4530 3746 c0 -2 7 -6 15 -10 8 -3 15 -1 15 4 0 6 -7 10 -15 10 -8 0
-15 -2 -15 -4z"/>
<path d="M4426 3713 c-6 -14 -5 -15 5 -6 7 7 10 15 7 18 -3 3 -9 -2 -12 -12z"/>
<path d="M4532 3705 c-39 -21 -49 -35 -26 -35 11 0 31 11 44 25 25 27 19 31
-18 10z"/>
<path d="M4875 3690 c3 -5 8 -10 11 -10 2 0 4 5 4 10 0 6 -5 10 -11 10 -5 0
-7 -4 -4 -10z"/>
<path d="M4937 3669 c-3 -12 1 -31 9 -43 14 -20 14 -19 10 18 -6 47 -12 54
-19 25z"/>
<path d="M4729 3643 c-13 -17 -13 -17 6 -3 11 8 22 16 24 17 2 2 0 3 -6 3 -6
0 -17 -8 -24 -17z"/>
<path d="M4770 3649 c0 -5 5 -7 10 -4 6 3 10 8 10 11 0 2 -4 4 -10 4 -5 0 -10
-5 -10 -11z"/>
<path d="M4890 3640 c0 -5 5 -10 11 -10 5 0 7 5 4 10 -3 6 -8 10 -11 10 -2 0
-4 -4 -4 -10z"/>
<path d="M4191 3565 c1 -19 18 -51 18 -35 0 8 -4 22 -9 30 -5 8 -9 11 -9 5z"/>
<path d="M5086 3555 c4 -8 11 -15 16 -15 6 0 5 6 -2 15 -7 8 -14 15 -16 15 -2
0 -1 -7 2 -15z"/>
<path d="M4462 3358 c1 -16 6 -28 10 -28 11 0 10 22 -2 40 -8 11 -9 9 -8 -12z"/>
<path d="M5291 3334 c0 -11 3 -14 6 -6 3 7 2 16 -1 19 -3 4 -6 -2 -5 -13z"/>
<path d="M5450 3274 c0 -28 10 -36 27 -23 16 14 18 33 2 23 -6 -3 -15 0 -20 7
-7 11 -9 9 -9 -7z"/>
<path d="M4580 3205 c-15 -16 -20 -29 -14 -34 5 -6 15 4 25 25 9 19 16 34 14
34 -1 0 -12 -11 -25 -25z"/>
<path d="M4380 3195 c7 -9 15 -13 17 -11 7 7 -7 26 -19 26 -6 0 -6 -6 2 -15z"/>
<path d="M4512 3188 c-7 -7 -12 -25 -12 -41 0 -22 -4 -28 -15 -23 -25 9 -17
-10 11 -29 26 -17 27 -17 21 4 -3 12 -1 38 5 57 11 40 8 50 -10 32z"/>
<path d="M4630 3174 c0 -8 5 -12 10 -9 6 4 8 11 5 16 -9 14 -15 11 -15 -7z"/>
<path d="M4594 3140 c-7 -40 -24 -56 -24 -22 0 14 -2 15 -10 2 -6 -10 -6 -16
0 -18 6 -2 8 -7 5 -12 -12 -20 23 -15 49 6 26 23 27 26 14 54 -17 40 -27 38
-34 -10z"/>
<path d="M4530 3144 c0 -8 5 -12 10 -9 6 4 8 11 5 16 -9 14 -15 11 -15 -7z"/>
<path d="M5440 3074 c-6 -14 -10 -33 -10 -42 0 -9 -4 -24 -9 -31 -7 -10 -8 0
-6 30 l5 44 -11 -45 c-6 -25 -16 -49 -22 -55 -7 -5 -8 -6 -4 -1 4 5 2 15 -4
22 -7 9 -7 19 1 33 7 14 7 21 1 21 -6 0 -13 -12 -17 -27 -6 -26 -25 -76 -46
-115 -13 -26 16 -23 42 4 11 12 20 18 20 13 0 -20 50 41 60 74 7 20 14 43 17
51 12 30 13 50 3 50 -6 0 -15 -12 -20 -26z m-70 -113 c0 -5 -9 -19 -21 -32
l-20 -24 17 33 c19 33 24 38 24 23z"/>
<path d="M5350 3049 c-7 -11 -10 -23 -7 -25 2 -2 9 7 15 21 14 30 7 33 -8 4z"/>
<path d="M5507 3064 c-9 -9 4 -35 14 -28 5 3 9 12 9 20 0 14 -12 19 -23 8z"/>
<path d="M5559 3023 c-3 -23 -1 -40 2 -37 11 7 16 39 9 59 -5 15 -8 9 -11 -22z"/>
<path d="M4533 3000 c-1 -11 2 -20 8 -20 5 0 9 9 9 20 0 11 -4 20 -8 20 -4 0
-8 -9 -9 -20z"/>
<path d="M5303 2946 c-24 -23 -30 -46 -13 -46 6 0 9 3 9 8 -3 19 2 33 10 28 5
-3 12 1 15 10 9 24 4 24 -21 0z"/>
<path d="M5536 2935 c-3 -9 -6 -22 -5 -28 0 -7 5 -1 10 12 5 13 8 26 5 28 -2
2 -6 -3 -10 -12z"/>
<path d="M4710 2910 c-8 -5 -11 -12 -7 -16 4 -4 13 -2 19 4 15 15 7 24 -12 12z"/>
<path d="M4840 2839 c0 -5 5 -7 10 -4 6 3 10 8 10 11 0 2 -4 4 -10 4 -5 0 -10
-5 -10 -11z"/>
<path d="M5300 2830 c-9 -6 -10 -10 -3 -10 6 0 15 5 18 10 8 12 4 12 -15 0z"/>
<path d="M4723 2823 c-7 -2 -13 -11 -13 -19 0 -12 4 -12 20 -4 32 17 26 37 -7
23z"/>
<path d="M4869 2803 c-13 -16 -12 -17 4 -4 9 7 17 15 17 17 0 8 -8 3 -21 -13z"/>
<path d="M4942 2578 c-16 -21 -26 -62 -13 -54 6 4 11 15 11 25 0 9 5 22 12 29
7 7 9 12 6 12 -3 0 -10 -6 -16 -12z"/>
<path d="M4860 2569 c0 -5 5 -7 10 -4 6 3 10 8 10 11 0 2 -4 4 -10 4 -5 0 -10
-5 -10 -11z"/>
<path d="M4885 2560 c-3 -5 -1 -10 4 -10 6 0 11 5 11 10 0 6 -2 10 -4 10 -3 0
-8 -4 -11 -10z"/>
<path d="M4990 2538 c0 -19 2 -20 10 -8 13 19 13 30 0 30 -5 0 -10 -10 -10
-22z"/>
<path d="M5220 2516 c0 -2 7 -7 16 -10 8 -3 12 -2 9 4 -6 10 -25 14 -25 6z"/>
<path d="M5067 2493 c3 -14 1 -23 -6 -23 -6 0 -11 -12 -11 -26 0 -14 4 -23 10
-19 6 3 10 15 10 26 0 21 16 26 23 7 3 -7 6 -8 6 -3 0 6 -8 21 -19 35 -19 24
-19 24 -13 3z"/>
<path d="M5117 2503 c-4 -3 -7 -11 -7 -17 0 -6 5 -5 12 2 6 6 9 14 7 17 -3 3
-9 2 -12 -2z"/>
<path d="M5280 2494 c0 -13 18 -39 24 -34 2 3 -2 14 -10 24 -8 11 -14 16 -14
10z"/>
<path d="M5198 2455 c-3 -13 -2 -22 2 -20 11 7 20 45 10 45 -4 0 -10 -11 -12
-25z"/>
<path d="M5138 2444 c-4 -4 -5 -11 -2 -15 7 -13 34 -11 34 2 0 5 -4 8 -9 5 -5
-4 -11 -1 -13 5 -2 5 -7 7 -10 3z"/>
<path d="M5180 2400 c0 -11 2 -20 4 -20 2 0 6 9 9 20 3 11 1 20 -4 20 -5 0 -9
-9 -9 -20z"/>
<path d="M6516 4125 c4 -8 8 -15 10 -15 2 0 4 7 4 15 0 8 -4 15 -10 15 -5 0
-7 -7 -4 -15z"/>
<path d="M6515 4080 c3 -5 8 -10 11 -10 2 0 4 5 4 10 0 6 -5 10 -11 10 -5 0
-7 -4 -4 -10z"/>
<path d="M6381 3990 c18 -22 34 -38 37 -35 7 6 -47 75 -59 75 -5 0 5 -18 22
-40z"/>
<path d="M5306 3677 c3 -10 9 -15 12 -12 3 3 0 11 -7 18 -10 9 -11 8 -5 -6z"/>
<path d="M7718 1058 c-8 -13 -21 -40 -28 -60 -17 -47 -7 -60 57 -75 148 -36
185 -43 253 -54 41 -6 111 -19 156 -29 45 -11 112 -22 150 -26 38 -3 96 -13
129 -21 163 -40 362 -58 353 -31 -5 15 -45 26 -123 34 -33 3 -91 14 -130 24
-38 10 -133 33 -210 50 -167 38 -274 71 -372 116 -40 19 -91 38 -114 43 -22 5
-51 19 -63 30 -28 27 -40 26 -58 -1z"/>
<path d="M7280 432 c-29 -10 -121 -95 -112 -104 16 -16 159 -38 249 -38 35 0
106 -11 159 -25 55 -14 125 -25 163 -25 36 0 97 -7 136 -15 38 -8 101 -15 140
-15 38 0 86 -4 105 -9 19 -5 100 -12 180 -16 79 -4 147 -8 151 -11 11 -7 826
-5 854 2 22 5 25 11 25 52 l0 45 -157 -6 c-87 -4 -203 -10 -259 -13 -77 -5
-118 -3 -177 10 -41 9 -106 17 -144 16 -37 -1 -118 3 -179 9 -61 6 -154 9
-205 7 -102 -5 -195 7 -244 30 -29 14 -73 23 -205 44 -30 4 -98 18 -150 29
-52 12 -131 24 -175 27 -44 3 -93 6 -110 8 -16 2 -37 1 -45 -2z"/>
</g>
</svg>
